<?xml version="1.0" encoding="UTF-8" standalone="no"?>
<svg
   xmlns:dc="http://purl.org/dc/elements/1.1/"
   xmlns:cc="http://creativecommons.org/ns#"
   xmlns:rdf="http://www.w3.org/1999/02/22-rdf-syntax-ns#"
   xmlns:svg="http://www.w3.org/2000/svg"
   xmlns="http://www.w3.org/2000/svg"
   viewBox="0 0 69.72989 70.491897"
   id="svg5553"
   height="70.491898mm"
   width="69.729889mm"
   version="1.0">
  <metadata
     id="metadata5589">
    <rdf:RDF>
      <cc:Work
         rdf:about="">
        <dc:format>image/svg+xml</dc:format>
        <dc:type
           rdf:resource="http://purl.org/dc/dcmitype/StillImage" />
        <dc:title></dc:title>
      </cc:Work>
    </rdf:RDF>
  </metadata>
  <defs
     id="defs5555">
    <clipPath
       id="clipEmfPath1"
       clipPathUnits="userSpaceOnUse">
      <path
         id="path5558"
         d="m 0.449977,0.449977 1165.740023,0 0,900.853023 -1165.740023,0 z" />
    </clipPath>
    <pattern
       y="0"
       x="0"
       height="6"
       width="6"
       patternUnits="userSpaceOnUse"
       id="EMFhbasepattern" />
    <clipPath
       clipPathUnits="userSpaceOnUse"
       id="clipEmfPath1-7">
      <path
         d="m 0.449977,0.449977 1165.740023,0 0,900.853023 -1165.740023,0 z"
         id="path6136" />
    </clipPath>
    <pattern
       id="EMFhbasepattern-4"
       patternUnits="userSpaceOnUse"
       width="6"
       height="6"
       x="0"
       y="0" />
  </defs>
  <path
     transform="matrix(0.28222222,0,0,0.28222222,-59.333663,109.58537)"
     id="path5563"
     d="m 0.824957,0.824957 1164.835043,0 0,899.953043 -1164.835043,0 z"
     clip-path="url(#clipEmfPath1)"
     style="fill:none;stroke:#868686;stroke-width:0.9374513px;stroke-linecap:butt;stroke-linejoin:round;stroke-miterlimit:4;stroke-dasharray:none;stroke-opacity:1" />
  <path
     transform="matrix(0.28222222,0,0,0.28222222,-131.15778,-92.509419)"
     id="path6141"
     d="m 0.824957,0.824957 1164.835043,0 0,899.953043 -1164.835043,0 z"
     clip-path="url(#clipEmfPath1-7)"
     style="fill:none;stroke:#868686;stroke-width:0.9374513px;stroke-linecap:butt;stroke-linejoin:round;stroke-miterlimit:4;stroke-dasharray:none;stroke-opacity:1" />
  <path
     id="path6143"
     d="m 34.875534,35.245804 14.33971,10.36066 -1.8415,17.5356 -16.2021,7.17521 -14.35043,-10.36066 1.85194,-17.53559 16.20238,-7.17522 5.48188,16.77388 -11.86321,13.10132 -17.34538,-3.66155 -5.4923204,-16.76316 11.8632104,-13.11204 17.34509,3.66155 -5.47116,16.77388 -17.34509,3.67227 -11.87394037,-13.1016 5.48188997,-16.77359 17.3450904,-3.66184 11.86321,13.09088 -14.33942,10.37138 -16.2023804,-7.16477 -1.86267,-17.5356 14.3504404,-10.3711 16.20209,7.17522 1.85194,17.52487 -17.72609,0.0107 -8.8682704,-15.27104 8.8578304,-15.2707609 17.73653,0 8.86856,15.2603209 -8.86856,15.27076 -14.33942,-10.36038 1.84121,-17.5355909 16.20238,-7.17521697 14.35015,10.36065787 -1.85194,17.53559 -16.20238,7.17494 -5.48188,-16.76287 11.86349,-13.1016009 17.3451,3.661551 5.49261,16.7631499 -11.8635,13.1016 -17.35582,-3.66183 5.48189,-16.76287 17.34538,-3.67228 11.86321,13.10132 -5.47116,16.77388 -17.34538,3.66155 -11.87394,-13.1016 14.35044,-10.36038 16.2021,7.1645 1.85194,17.53559 -14.33943,10.3711 -16.20238,-7.17493 -1.86267,-17.53588 17.73682,0 8.86856,15.27104 -8.85783,15.27105 -17.73682,0 -8.86827,-15.27105 8.85754,-15.27104 z"
     style="fill:#ffcc00;fill-opacity:1;fill-rule:evenodd;stroke:none" />
  <path
     id="path6145"
     d="m 34.875534,35.245804 14.33971,10.36066 -1.8415,17.5356 -16.2021,7.17521 -14.35043,-10.36066 1.85194,-17.53559 16.20238,-7.17522 5.48188,16.77388 -11.86321,13.10132 -17.34538,-3.66155 -5.4923204,-16.76316 11.8632104,-13.11204 17.34509,3.66155 -5.47116,16.77388 -17.34509,3.67227 -11.87394037,-13.1016 5.48188997,-16.77359 17.3450904,-3.66184 11.86321,13.09088 -14.33942,10.37138 -16.2023804,-7.16477 -1.86267,-17.5356 14.3504404,-10.3711 16.20209,7.17522 1.85194,17.52487 -17.72609,0.0107 -8.8682704,-15.27104 8.8578304,-15.2707609 17.73653,0 8.86856,15.2603209 -8.86856,15.27076 -14.33942,-10.36038 1.84121,-17.5355909 16.20238,-7.17521697 14.35015,10.36065787 -1.85194,17.53559 -16.20238,7.17494 -5.48188,-16.76287 11.86349,-13.1016009 17.3451,3.661551 5.49261,16.7631499 -11.8635,13.1016 -17.35582,-3.66183 5.48189,-16.76287 17.34538,-3.67228 11.86321,13.10132 -5.47116,16.77388 -17.34538,3.66155 -11.87394,-13.1016 14.35044,-10.36038 16.2021,7.1645 1.85194,17.53559 -14.33943,10.3711 -16.20238,-7.17493 -1.86267,-17.53588 17.73682,0 8.86856,15.27104 -8.85783,15.27105 -17.73682,0 -8.86827,-15.27105 8.85754,-15.27104"
     style="fill:none;stroke:#000000;stroke-width:0.34923184px;stroke-linecap:butt;stroke-linejoin:round;stroke-miterlimit:4;stroke-dasharray:none;stroke-opacity:1" />
</svg>
