<?xml version="1.0" encoding="UTF-8" standalone="no"?>
<svg
   xmlns:dc="http://purl.org/dc/elements/1.1/"
   xmlns:cc="http://creativecommons.org/ns#"
   xmlns:rdf="http://www.w3.org/1999/02/22-rdf-syntax-ns#"
   xmlns:svg="http://www.w3.org/2000/svg"
   xmlns="http://www.w3.org/2000/svg"
   xmlns:sodipodi="http://sodipodi.sourceforge.net/DTD/sodipodi-0.dtd"
   xmlns:inkscape="http://www.inkscape.org/namespaces/inkscape"
   version="1.0"
   width="130.68651mm"
   height="131.66031mm"
   id="svg4136"
   inkscape:version="0.91 r13725"
   viewBox="0 0 130.68651 131.66031"
   sodipodi:docname="spiral.svg">
  <metadata
     id="metadata4154">
    <rdf:RDF>
      <cc:Work
         rdf:about="">
        <dc:format>image/svg+xml</dc:format>
        <dc:type
           rdf:resource="http://purl.org/dc/dcmitype/StillImage" />
        <dc:title></dc:title>
      </cc:Work>
    </rdf:RDF>
  </metadata>
  <sodipodi:namedview
     pagecolor="#ffffff"
     bordercolor="#666666"
     borderopacity="1"
     objecttolerance="10"
     gridtolerance="10"
     guidetolerance="10"
     inkscape:pageopacity="0"
     inkscape:pageshadow="2"
     inkscape:window-width="1259"
     inkscape:window-height="745"
     id="namedview4152"
     inkscape:document-units="mm"
     showgrid="false"
     fit-margin-top="0"
     fit-margin-left="0"
     fit-margin-right="0"
     fit-margin-bottom="0"
     inkscape:zoom="0.47062937"
     inkscape:cx="169.84731"
     inkscape:cy="187.41351"
     inkscape:window-x="2326"
     inkscape:window-y="286"
     inkscape:window-maximized="0"
     inkscape:current-layer="svg4136" />
  <defs
     id="defs4138">
    <clipPath
       clipPathUnits="userSpaceOnUse"
       id="clipEmfPath1">
      <path
         d="m 0.449977,0.449977 1151.190023,0 0,900.853023 -1151.190023,0 z"
         id="path4141"
         inkscape:connector-curvature="0" />
    </clipPath>
    <pattern
       id="EMFhbasepattern"
       patternUnits="userSpaceOnUse"
       width="6"
       height="6"
       x="0"
       y="0" />
  </defs>
  <path
     style="fill:none;stroke:#868686;stroke-width:0.9374513px;stroke-linecap:butt;stroke-linejoin:round;stroke-miterlimit:4;stroke-dasharray:none;stroke-opacity:1"
     clip-path="url(#clipEmfPath1)"
     d="m 0.824957,0.824957 1150.295043,0 0,899.953043 -1150.295043,0 z"
     id="path4146"
     inkscape:connector-curvature="0"
     transform="matrix(0.28222222,0,0,0.28222222,-149.2756,-8.1011351)" />
  <path
     style="fill:#00ccff;fill-opacity:1;fill-rule:evenodd;stroke:none"
     d="m 12.64093,119.67526 105.04481,0 L 119.51651,14.196791 15.23371,10.535155 9.7837204,115.16704 113.18796,122.45853 122.18351,18.768565 19.80543,7.9317681 7.2967704,110.53182 108.55274,124.87153 124.4904,23.467396 24.48326,5.6988261 5.1801104,105.79077 103.82214,126.91397 126.42701,28.25078 29.25592,3.8468271 3.4232704,100.96505 99.01758,128.58614 127.99334,33.108107 34.08164,2.3546621 2.0477204,96.097001 94.18142,129.88775 129.18912,37.986883 38.92852,1.2434685 1.0317204,91.207785 89.32382,130.80836 130.02534,42.8761 43.78613,0.5026634 0.38600043,86.318567 84.47693,131.36942 130.49101,47.754876 48.61185,0.1216916 0.08995043,81.471683 79.68282,131.57036 130.59656,52.569869 53.38479,0.0899416 0.15316043,76.677574 74.94177,131.42219 130.37445,57.321645 58.07278,0.4179967 0.55533043,71.978856 70.29611,130.93536 129.80295,61.978029 62.66567,1.0635518 1.2857204,67.385971 65.76644,130.12058 128.91395,66.507414 67.12111,2.0477451 2.3333304,62.919805 61.37478,128.98831 127.71817,70.888631 71.43883,3.3282721 3.6772704,58.612811 57.14173,127.5597 126.22606,75.11124 75.5875,4.9051041 5.3071104,54.474869 53.08846,125.8452 124.45879,79.153791 79.54538,6.7465191 7.2121104,50.538151 49.23612,123.86626 122.42679,82.9954 83.30232,8.8524901 9.3603804,46.812818 45.5853,121.64376 120.16196,86.604176 86.83687,11.191265 11.73077,43.310158 42.16702,119.19915 117.68574,89.99056 90.13859,13.741736 14.3131,40.040049 38.99202,116.54287 115.0083,93.133671 93.18659,16.482678 17.08565,37.034383 36.06058,113.71726 112.1508,96.012331 95.99103,19.403509 20.01709,34.282998 33.39386,110.72232 109.14541,98.636721 98.52031,22.472563 23.0967,31.796056 l 7.90533,75.793884 75.00027,-6.61445 -5.22788,-75.317485 -74.48155,3.936718 2.59277,74.746267 73.86772,-1.3016 0,-74.09011 -73.16922,-1.280724 -2.54,73.338834 72.38634,3.82044 5.02666,-72.502607 L 32.94936,26.02828 25.47781,97.599831 96.03337,106.33038 105.8753,35.75394 36.35691,24.663171 24.19737,94.149671 92.60437,107.5476 107.0183,39.214549 39.80708,23.583671 23.20254,90.678618 89.15448,108.48938 107.87541,42.696325 43.24652,22.790063 22.47243,87.207285 85.71504,109.14555 108.46808,46.156934 46.68568,22.260896 22.0172,83.7574 82.29676,109.53699 108.78558,49.585651 50.07235,22.006896 21.82698,80.349849 78.93155,109.66399 108.84908,52.972036 53.4164,22.006896 21.90093,77.005516 75.62983,109.53699 108.65858,56.274036 56.67607,22.260896 22.2077,73.746131 72.4125,109.15599 108.2248,59.491087 59.84034,22.758171 22.75804,70.581856 69.30128,108.54244 107.55791,62.602305 62.8985,23.477838 23.53076,67.534138 66.30634,107.71694 106.67964,65.586805 65.82994,24.419896 24.51487,64.613138 63.43839,106.66905 105.60014,68.422856 68.61322,25.562614 25.68948,61.840587 60.72906,105.44166 104.33014,71.121465 71.24833,26.885671 27.05487,59.237087 58.17862,104.02349 102.89108,73.65074 73.7141,28.37778 28.56814,56.792478 55.80823,102.45716 101.29286,76.00024 76.0001,30.018056 30.24003,54.538369 53.6069,100.74266 99.55748,78.15924 78.0956,31.796056 32.0392,52.464036 51.59635,98.901441 97.70553,80.138183 80.01105,33.690331 33.9442,50.590927 49.78646,96.954111 95.74748,81.9159 81.72526,35.69044 35.9443,48.919043 48.17807,94.922391 93.70503,83.482234 83.2281,37.764774 38.01864,47.447818 46.77035,92.816171 91.59909,84.847343 84.54043,39.902325 40.14575,46.1781 45.57457,90.657451 89.45082,86.011509 85.63037,42.071767 42.31519,45.130209 44.5693,88.466843 87.27065,86.964009 86.5301,44.2731 l -42.0243,0 -0.73039,41.981967 41.30463,1.449776 2.13783,-41.219967 -40.52146,-2.8575 -3.50295,40.426358 39.69597,4.201442 L 87.71515,48.686209 48.87657,43.183158 42.7913,81.863125 80.73071,88.604285 88.01148,50.855651 51.01412,42.929158 42.59036,79.714849 78.6036,88.763176 88.11732,52.98276 53.10962,42.865658 42.56919,77.619349 76.53971,88.731285 88.05382,55.046369 55.15207,42.981934 42.7278,75.587631 74.5396,88.540785 87.81054,57.036036 57.0994,43.2571 43.0453,73.640298 72.63489,88.170509 87.41882,58.940754 58.97251,43.7016 43.52169,71.777631 70.81455,87.662509 86.86876,60.73992 60.72906,44.294267 44.13524,70.031523 69.11078,86.995618 86.18071,62.433254 62.38006,45.013934 44.8868,68.401689 67.51284,86.212734 85.36593,63.999305 63.90406,45.8606 45.75463,66.899138 66.05234,85.313009 84.44504,65.438638 65.30106,46.812818 46.72802,65.523305 64.72956,84.307734 83.42932,66.740247 66.56034,47.860709 47.79707,64.295638 63.54423,83.217791 82.32866,67.893971 67.661,48.992985 48.92935,63.216138 62.51778,82.053625 81.15405,68.899247 68.62394,50.178318 50.12512,62.285087 61.62878,80.836683 79.93682,69.756356 69.42828,51.416427 51.36352,61.512363 60.89839,79.577125 78.67755,70.454856 70.08444,52.696869 52.63323,60.898529 60.32689,78.296683 77.40755,70.994465 70.58172,53.977594 53.91396,60.432863 59.90384,77.005516 76.1271,71.375465 70.93083,55.268478 55.1944,60.115363 l 4.43428,15.609711 15.21798,-4.116776 -3.72533,-15.059095 -14.66765,3.417993 3.05844,14.487878 14.09615,-2.762109 -2.43388,-13.895211 -13.49305,2.148275 1.85194,13.28166 12.85805,-1.5875 -1.31233,-12.635935 -12.21232,1.0795 0.83594,11.958602 11.53527,-0.603391 -0.39173,-11.281269 -10.85793,0.1905 0,10.582769 10.15971,0.180058 0.33867,-9.873827 -9.44005,-0.497276 -0.635,9.143436 8.72038,0.772724 0.87828,-8.424051 -7.98999,-0.984109 -1.0795,7.682936 7.27032,1.164167 1.21723,-6.952827 -6.52978,-1.280442 -1.31205,6.211993 5.79939,1.354667 1.35438,-5.481885 -5.07972,-1.365391 -1.34394,4.741333 4.34961,1.343943 1.30161,-4.021385 -3.64039,-1.27 -1.2065,3.312442 2.95261,1.143 1.04761,-2.613942 -2.26455,-0.963224 -0.84667,1.926166 1.58722,0.751276 0.61383,-1.27 -0.94177,-0.486551 -0.32794,0.624275 z"
     id="path4148"
     inkscape:connector-curvature="0" />
  <path
     style="fill:none;stroke:#000000;stroke-width:0.17990732px;stroke-linecap:butt;stroke-linejoin:round;stroke-miterlimit:4;stroke-dasharray:none;stroke-opacity:1"
     d="m 12.64093,119.67526 105.04481,0 L 119.51651,14.196791 15.23371,10.535155 9.7837204,115.16704 113.18796,122.45853 122.18351,18.768565 19.80543,7.9317681 7.2967704,110.53182 108.55274,124.87153 124.4904,23.467396 24.48326,5.6988261 5.1801104,105.79077 103.82214,126.91397 126.42701,28.25078 29.25592,3.8468271 3.4232704,100.96505 99.01758,128.58614 127.99334,33.108107 34.08164,2.3546621 2.0477204,96.097001 94.18142,129.88775 129.18912,37.986883 38.92852,1.2434685 1.0317204,91.207785 89.32382,130.80836 130.02534,42.8761 43.78613,0.5026634 0.38600043,86.318567 84.47693,131.36942 130.49101,47.754876 48.61185,0.1216916 0.08995043,81.471683 79.68282,131.57036 130.59656,52.569869 53.38479,0.0899416 0.15316043,76.677574 74.94177,131.42219 130.37445,57.321645 58.07278,0.4179967 0.55533043,71.978856 70.29611,130.93536 129.80295,61.978029 62.66567,1.0635518 1.2857204,67.385971 65.76644,130.12058 128.91395,66.507414 67.12111,2.0477451 2.3333304,62.919805 61.37478,128.98831 127.71817,70.888631 71.43883,3.3282721 3.6772704,58.612811 57.14173,127.5597 126.22606,75.11124 75.5875,4.9051041 5.3071104,54.474869 53.08846,125.8452 124.45879,79.153791 79.54538,6.7465191 7.2121104,50.538151 49.23612,123.86626 122.42679,82.9954 83.30232,8.8524901 9.3603804,46.812818 45.5853,121.64376 120.16196,86.604176 86.83687,11.191265 11.73077,43.310158 42.16702,119.19915 117.68574,89.99056 90.13859,13.741736 14.3131,40.040049 38.99202,116.54287 115.0083,93.133671 93.18659,16.482678 17.08565,37.034383 36.06058,113.71726 112.1508,96.012331 95.99103,19.403509 20.01709,34.282998 33.39386,110.72232 109.14541,98.636721 98.52031,22.472563 23.0967,31.796056 l 7.90533,75.793884 75.00027,-6.61445 -5.22788,-75.317485 -74.48155,3.936718 2.59277,74.746267 73.86772,-1.3016 0,-74.09011 -73.16922,-1.280724 -2.54,73.338834 72.38634,3.82044 5.02666,-72.502607 L 32.94936,26.02828 25.47781,97.599831 96.03337,106.33038 105.8753,35.75394 36.35691,24.663171 24.19737,94.149671 92.60437,107.5476 107.0183,39.214549 39.80708,23.583671 23.20254,90.678618 89.15448,108.48938 107.87541,42.696325 43.24652,22.790063 22.47243,87.207285 85.71504,109.14555 108.46808,46.156934 46.68568,22.260896 22.0172,83.7574 82.29676,109.53699 108.78558,49.585651 50.07235,22.006896 21.82698,80.349849 78.93155,109.66399 108.84908,52.972036 53.4164,22.006896 21.90093,77.005516 75.62983,109.53699 108.65858,56.274036 56.67607,22.260896 22.2077,73.746131 72.4125,109.15599 108.2248,59.491087 59.84034,22.758171 22.75804,70.581856 69.30128,108.54244 107.55791,62.602305 62.8985,23.477838 23.53076,67.534138 66.30634,107.71694 106.67964,65.586805 65.82994,24.419896 24.51487,64.613138 63.43839,106.66905 105.60014,68.422856 68.61322,25.562614 25.68948,61.840587 60.72906,105.44166 104.33014,71.121465 71.24833,26.885671 27.05487,59.237087 58.17862,104.02349 102.89108,73.65074 73.7141,28.37778 28.56814,56.792478 55.80823,102.45716 101.29286,76.00024 76.0001,30.018056 30.24003,54.538369 53.6069,100.74266 99.55748,78.15924 78.0956,31.796056 32.0392,52.464036 51.59635,98.901441 97.70553,80.138183 80.01105,33.690331 33.9442,50.590927 49.78646,96.954111 95.74748,81.9159 81.72526,35.69044 35.9443,48.919043 48.17807,94.922391 93.70503,83.482234 83.2281,37.764774 38.01864,47.447818 46.77035,92.816171 91.59909,84.847343 84.54043,39.902325 40.14575,46.1781 45.57457,90.657451 89.45082,86.011509 85.63037,42.071767 42.31519,45.130209 44.5693,88.466843 87.27065,86.964009 86.5301,44.2731 l -42.0243,0 -0.73039,41.981967 41.30463,1.449776 2.13783,-41.219967 -40.52146,-2.8575 -3.50295,40.426358 39.69597,4.201442 L 87.71515,48.686209 48.87657,43.183158 42.7913,81.863125 80.73071,88.604285 88.01148,50.855651 51.01412,42.929158 42.59036,79.714849 78.6036,88.763176 88.11732,52.98276 53.10962,42.865658 42.56919,77.619349 76.53971,88.731285 88.05382,55.046369 55.15207,42.981934 42.7278,75.587631 74.5396,88.540785 87.81054,57.036036 57.0994,43.2571 43.0453,73.640298 72.63489,88.170509 87.41882,58.940754 58.97251,43.7016 43.52169,71.777631 70.81455,87.662509 86.86876,60.73992 60.72906,44.294267 44.13524,70.031523 69.11078,86.995618 86.18071,62.433254 62.38006,45.013934 44.8868,68.401689 67.51284,86.212734 85.36593,63.999305 63.90406,45.8606 45.75463,66.899138 66.05234,85.313009 84.44504,65.438638 65.30106,46.812818 46.72802,65.523305 64.72956,84.307734 83.42932,66.740247 66.56034,47.860709 47.79707,64.295638 63.54423,83.217791 82.32866,67.893971 67.661,48.992985 48.92935,63.216138 62.51778,82.053625 81.15405,68.899247 68.62394,50.178318 50.12512,62.285087 61.62878,80.836683 79.93682,69.756356 69.42828,51.416427 51.36352,61.512363 60.89839,79.577125 78.67755,70.454856 70.08444,52.696869 52.63323,60.898529 60.32689,78.296683 77.40755,70.994465 70.58172,53.977594 53.91396,60.432863 59.90384,77.005516 76.1271,71.375465 70.93083,55.268478 55.1944,60.115363 l 4.43428,15.609711 15.21798,-4.116776 -3.72533,-15.059095 -14.66765,3.417993 3.05844,14.487878 14.09615,-2.762109 -2.43388,-13.895211 -13.49305,2.148275 1.85194,13.28166 12.85805,-1.5875 -1.31233,-12.635935 -12.21232,1.0795 0.83594,11.958602 11.53527,-0.603391 -0.39173,-11.281269 -10.85793,0.1905 0,10.582769 10.15971,0.180058 0.33867,-9.873827 -9.44005,-0.497276 -0.635,9.143436 8.72038,0.772724 0.87828,-8.424051 -7.98999,-0.984109 -1.0795,7.682936 7.27032,1.164167 1.21723,-6.952827 -6.52978,-1.280442 -1.31205,6.211993 5.79939,1.354667 1.35438,-5.481885 -5.07972,-1.365391 -1.34394,4.741333 4.34961,1.343943 1.30161,-4.021385 -3.64039,-1.27 -1.2065,3.312442 2.95261,1.143 1.04761,-2.613942 -2.26455,-0.963224 -0.84667,1.926166 1.58722,0.751276 0.61383,-1.27 -0.94177,-0.486551 -0.32794,0.624275"
     id="path4150"
     inkscape:connector-curvature="0" />
</svg>
