<?xml version="1.0" encoding="UTF-8" standalone="no"?>
<!-- Created with Inkscape (http://www.inkscape.org/) -->

<svg
   xmlns:dc="http://purl.org/dc/elements/1.1/"
   xmlns:cc="http://creativecommons.org/ns#"
   xmlns:rdf="http://www.w3.org/1999/02/22-rdf-syntax-ns#"
   xmlns:svg="http://www.w3.org/2000/svg"
   xmlns="http://www.w3.org/2000/svg"
   xmlns:sodipodi="http://sodipodi.sourceforge.net/DTD/sodipodi-0.dtd"
   xmlns:inkscape="http://www.inkscape.org/namespaces/inkscape"
   width="71.243423mm"
   height="61.475445mm"
   viewBox="0 0 252.43733 217.82638"
   id="svg6197"
   version="1.1"
   inkscape:version="0.91 r13725"
   sodipodi:docname="sierpinski.svg">
  <defs
     id="defs6199">
    <clipPath
       id="clipEmfPath1"
       clipPathUnits="userSpaceOnUse">
      <path
         inkscape:connector-curvature="0"
         id="path6210"
         d="m 0.449977,0.449977 1165.740023,0 0,900.853023 -1165.740023,0 z" />
    </clipPath>
    <pattern
       y="0"
       x="0"
       height="6"
       width="6"
       patternUnits="userSpaceOnUse"
       id="EMFhbasepattern" />
  </defs>
  <sodipodi:namedview
     id="base"
     pagecolor="#ffffff"
     bordercolor="#666666"
     borderopacity="1.0"
     inkscape:pageopacity="0.0"
     inkscape:pageshadow="2"
     inkscape:zoom="0.35"
     inkscape:cx="116.22"
     inkscape:cy="-41.106058"
     inkscape:document-units="px"
     inkscape:current-layer="layer1"
     showgrid="false"
     fit-margin-top="0"
     fit-margin-left="0"
     fit-margin-right="0"
     fit-margin-bottom="0"
     inkscape:window-width="1920"
     inkscape:window-height="1017"
     inkscape:window-x="1912"
     inkscape:window-y="-8"
     inkscape:window-maximized="1" />
  <metadata
     id="metadata6202">
    <rdf:RDF>
      <cc:Work
         rdf:about="">
        <dc:format>image/svg+xml</dc:format>
        <dc:type
           rdf:resource="http://purl.org/dc/dcmitype/StillImage" />
        <dc:title></dc:title>
      </cc:Work>
    </rdf:RDF>
  </metadata>
  <g
     inkscape:label="Layer 1"
     inkscape:groupmode="layer"
     id="layer1"
     transform="translate(-258.78,-273.42975)">
    <path
       style="fill:none;stroke:#868686;stroke-width:0.9374513px;stroke-linecap:butt;stroke-linejoin:round;stroke-miterlimit:4;stroke-dasharray:none;stroke-opacity:1"
       clip-path="url(#clipEmfPath1)"
       d="m 0.824957,0.824957 1164.835043,0 0,899.953043 -1164.835043,0 z"
       id="path6215"
       inkscape:connector-curvature="0"
       transform="translate(-203.28935,-87.057577)" />
    <path
       style="fill:#ffff00;fill-opacity:1;fill-rule:evenodd;stroke:none"
       d="m 259.39867,490.63742 31.38597,0 -15.71098,-27.07399 -15.67499,27.07399 31.38597,0 31.424,0 -15.71198,-27.07399 -15.71202,27.07399 -31.38597,0 15.67499,-27.07399 31.423,0 -15.71202,-27.07299 -15.71098,27.07299 -15.67499,27.07399 62.80997,0 31.38601,0 -15.71201,-27.07399 -15.674,27.07399 31.38601,0 31.42301,0 -15.71202,-27.07399 -15.71099,27.07399 -31.38601,0 15.674,-27.07399 31.423,0 -15.71099,-27.07299 -15.71201,27.07299 -15.674,27.07399 -62.80997,0 31.38597,-54.14698 31.424,0 -15.71198,-27.07402 -15.71202,27.07402 31.424,0 31.38601,0 -15.71201,-27.07402 -15.674,27.07402 -31.424,0 15.71202,-27.07402 31.38598,0 -15.674,-27.07299 -15.71198,27.07299 -15.71202,27.07402 -31.38597,54.14698 125.61899,0 31.38601,0 -15.71202,-27.07399 -15.67399,27.07399 31.38601,0 31.42297,0 -15.71198,-27.07399 -15.71099,27.07399 -31.38601,0 15.67399,-27.07399 31.42301,0 -15.71099,-27.07299 -15.71202,27.07299 -15.67399,27.07399 62.77198,0 31.42301,0 -15.71198,-27.07399 -15.71103,27.07399 31.42301,0 31.38601,0 -15.674,-27.07399 -15.71201,27.07399 -31.42301,0 15.71103,-27.07399 31.42399,0 -15.71201,-27.07299 -15.71198,27.07299 -15.71103,27.07399 -62.77198,0 31.38601,-54.14698 31.38597,0 -15.67498,-27.07402 -15.71099,27.07402 31.38597,0 31.42301,0 -15.71198,-27.07402 -15.71103,27.07402 -31.38597,0 15.71099,-27.07402 31.38601,0 -15.71103,-27.07299 -15.67498,27.07299 -15.71099,27.07402 -31.42403,54.14698 -125.58097,0 62.80997,-108.29399 31.38601,0 -15.71201,-27.07402 -15.674,27.07402 31.38601,0 31.38499,0 -15.674,-27.07402 -15.71099,27.07402 -31.42399,0 15.71198,-27.07402 31.423,0 -15.71099,-27.07399 -15.71201,27.07399 -15.71198,27.07402 62.80898,0 31.42403,0 -15.71202,-27.07402 -15.71201,27.07402 31.42403,0 31.38597,0 -15.67498,-27.07402 -15.71099,27.07402 -31.42403,0 15.71201,-27.07402 31.42301,0 -15.71099,-27.07399 -15.71202,27.07399 -15.71201,27.07402 -62.80898,0 31.42399,-54.14801 31.38499,0 -15.674,-27.07299 -15.71099,27.07299 31.38499,0 31.42403,0 -15.71202,-27.07299 -15.71201,27.07299 -31.38499,0 15.71099,-27.07299 31.38601,0 -15.71201,-27.07402 -15.674,27.07402 -15.71099,27.07299 -31.42399,54.14801 -62.80902,108.29399 z"
       id="path6217"
       inkscape:connector-curvature="0" />
    <path
       style="fill:none;stroke:#000000;stroke-width:1.2374357px;stroke-linecap:butt;stroke-linejoin:round;stroke-miterlimit:4;stroke-dasharray:none;stroke-opacity:1"
       d="m 259.39867,490.63742 31.38597,0 -15.71098,-27.07399 -15.67499,27.07399 31.38597,0 31.424,0 -15.71198,-27.07399 -15.71202,27.07399 -31.38597,0 15.67499,-27.07399 31.423,0 -15.71202,-27.07299 -15.71098,27.07299 -15.67499,27.07399 62.80997,0 31.38601,0 -15.71201,-27.07399 -15.674,27.07399 31.38601,0 31.42301,0 -15.71202,-27.07399 -15.71099,27.07399 -31.38601,0 15.674,-27.07399 31.423,0 -15.71099,-27.07299 -15.71201,27.07299 -15.674,27.07399 -62.80997,0 31.38597,-54.14698 31.424,0 -15.71198,-27.07402 -15.71202,27.07402 31.424,0 31.38601,0 -15.71201,-27.07402 -15.674,27.07402 -31.424,0 15.71202,-27.07402 31.38598,0 -15.674,-27.07299 -15.71198,27.07299 -15.71202,27.07402 -31.38597,54.14698 125.61899,0 31.38601,0 -15.71202,-27.07399 -15.67399,27.07399 31.38601,0 31.42297,0 -15.71198,-27.07399 -15.71099,27.07399 -31.38601,0 15.67399,-27.07399 31.42301,0 -15.71099,-27.07299 -15.71202,27.07299 -15.67399,27.07399 62.77198,0 31.42301,0 -15.71198,-27.07399 -15.71103,27.07399 31.42301,0 31.38601,0 -15.674,-27.07399 -15.71201,27.07399 -31.42301,0 15.71103,-27.07399 31.42399,0 -15.71201,-27.07299 -15.71198,27.07299 -15.71103,27.07399 -62.77198,0 31.38601,-54.14698 31.38597,0 -15.67498,-27.07402 -15.71099,27.07402 31.38597,0 31.42301,0 -15.71198,-27.07402 -15.71103,27.07402 -31.38597,0 15.71099,-27.07402 31.38601,0 -15.71103,-27.07299 -15.67498,27.07299 -15.71099,27.07402 -31.42403,54.14698 -125.58097,0 62.80997,-108.29399 31.38601,0 -15.71201,-27.07402 -15.674,27.07402 31.38601,0 31.38499,0 -15.674,-27.07402 -15.71099,27.07402 -31.42399,0 15.71198,-27.07402 31.423,0 -15.71099,-27.07399 -15.71201,27.07399 -15.71198,27.07402 62.80898,0 31.42403,0 -15.71202,-27.07402 -15.71201,27.07402 31.42403,0 31.38597,0 -15.67498,-27.07402 -15.71099,27.07402 -31.42403,0 15.71201,-27.07402 31.42301,0 -15.71099,-27.07399 -15.71202,27.07399 -15.71201,27.07402 -62.80898,0 31.42399,-54.14801 31.38499,0 -15.674,-27.07299 -15.71099,27.07299 31.38499,0 31.42403,0 -15.71202,-27.07299 -15.71201,27.07299 -31.38499,0 15.71099,-27.07299 31.38601,0 -15.71201,-27.07402 -15.674,27.07402 -15.71099,27.07299 -31.42399,54.14801 -62.80902,108.29399"
       id="path6219"
       inkscape:connector-curvature="0" />
  </g>
</svg>
