<?xml version="1.0" encoding="UTF-8" standalone="no"?>
<svg
   xmlns:dc="http://purl.org/dc/elements/1.1/"
   xmlns:cc="http://creativecommons.org/ns#"
   xmlns:rdf="http://www.w3.org/1999/02/22-rdf-syntax-ns#"
   xmlns:svg="http://www.w3.org/2000/svg"
   xmlns="http://www.w3.org/2000/svg"
   viewBox="0 0 64.925231 65.412047"
   id="svg4136"
   height="65.412048mm"
   width="64.925232mm"
   version="1.0">
  <metadata
     id="metadata4176">
    <rdf:RDF>
      <cc:Work
         rdf:about="">
        <dc:format>image/svg+xml</dc:format>
        <dc:type
           rdf:resource="http://purl.org/dc/dcmitype/StillImage" />
        <dc:title></dc:title>
      </cc:Work>
    </rdf:RDF>
  </metadata>
  <defs
     id="defs4138">
    <clipPath
       id="clipEmfPath1"
       clipPathUnits="userSpaceOnUse">
      <path
         id="path4141"
         d="m 0.449977,0.449977 1151.190023,0 0,900.853023 -1151.190023,0 z" />
    </clipPath>
    <pattern
       y="0"
       x="0"
       height="6"
       width="6"
       patternUnits="userSpaceOnUse"
       id="EMFhbasepattern" />
  </defs>
  <path
     transform="matrix(0.28222222,0,0,0.28222222,-129.45928,-95.054711)"
     id="path4146"
     d="m 0.824957,0.824957 1150.295043,0 0,899.953043 -1150.295043,0 z"
     clip-path="url(#clipEmfPath1)"
     style="fill:none;stroke:#868686;stroke-width:0.9374513px;stroke-linecap:butt;stroke-linejoin:round;stroke-miterlimit:4;stroke-dasharray:none;stroke-opacity:1" />
  <path
     id="path4148"
     d="m 32.45725,15.059085 c 0,0 6.20155,-6.2331596 6.20155,-6.2331596 C 48.28907,-0.88900861 55.29496,9.7042054 64.92523,-8.6127393e-6 55.29496,9.7042054 65.79306,16.762865 56.16279,26.467355 c 0,0 -6.19111,6.23316 -6.19111,6.23316 0,0 6.19111,6.24388 6.19111,6.24388 9.63027,9.7045 -0.86783,16.76316 8.76244,26.46765 -9.63027,-9.70449 -16.63616,0.87828 -26.26643,-8.82593 0,0 -6.20155,-6.23345 -6.20155,-6.23345 0,0 -6.19082,6.23345 -6.19082,6.23345 C 16.63616,66.290325 9.63027,55.707555 0,65.412045 c 9.63027,-9.70449 -0.87855,-16.76315 8.76244,-26.46765 0,0 6.19083,-6.24388 6.19083,-6.24388 0,0 -6.19083,-6.23316 -6.19083,-6.23316 C -0.87855,16.762865 9.63027,9.7042054 0,-8.6127393e-6 9.63027,9.7042054 16.63616,-0.88900861 26.26643,8.8259254 c 0,0 6.19082,6.2331596 6.19082,6.2331596 z"
     style="fill:#008000;fill-opacity:1;fill-rule:evenodd;stroke:none" />
  <path
     id="path4150"
     d="m 48.6173,25.959355 c 4.93155,0 8.92132,3.01611 8.92132,6.74116 0,3.73578 -3.98977,6.75188 -8.92132,6.75188 3.48177,3.51367 4.19072,8.498 1.57677,11.13311 -2.61394,2.64583 -7.56666,1.92616 -11.05916,-1.5875 0,4.97416 -2.99466,8.99555 -6.69882,8.99555 -3.69345,0 -6.68839,-4.02139 -6.68839,-8.99555 -3.49222,3.51366 -8.44493,4.23333 -11.05888,1.5875 -2.61394,-2.63511 -1.905,-7.61944 1.57678,-11.13311 -4.93155,0 -8.93177,-3.0161 -8.93177,-6.75188 0,-3.72505 4.00022,-6.74116 8.93177,-6.74116 -3.48178,-3.51338 -4.19072,-8.49799 -1.57678,-11.14354 2.61395,-2.63511 7.56666,-1.91545 11.05888,1.59794 0,-4.97389 2.99494,-9.0059996 6.68839,-9.0059996 3.70416,0 6.69882,4.0321096 6.69882,9.0059996 3.4925,-3.51339 8.44522,-4.23305 11.05916,-1.59794 2.61395,2.64555 1.905,7.63016 -1.57677,11.14354 z"
     style="fill:#bfbf00;fill-opacity:1;fill-rule:evenodd;stroke:none" />
  <path
     id="path4152"
     d="m 48.44796,21.927245 -5.33371,6.32855 8.20166,0.66689 -7.32339,3.77783 7.32339,3.78883 -8.20166,0.66661 5.33371,6.32855 -7.84182,-2.55044 2.52927,7.90533 -6.27577,-5.37605 -0.66661,8.26516 -3.75694,-7.38689 -3.74622,7.38689 -0.66661,-8.26516 -6.27578,5.37605 2.52928,-7.90533 -7.84183,2.55044 5.33372,-6.32855 -8.2121,-0.66661 7.33383,-3.78883 -7.33383,-3.77783 8.2121,-0.66689 -5.33372,-6.32855 7.84183,2.55073 -2.52928,-7.90561 6.27578,5.37605 0.66661,-8.2756 3.74622,7.39732 3.75694,-7.39732 0.66661,8.2756 6.27577,-5.37605 -2.52927,7.90561 z"
     style="fill:#000000;fill-opacity:1;fill-rule:evenodd;stroke:none" />
  <path
     id="path4154"
     d="m 32.43609,32.705875 c 0.35447,-0.85711 2.25947,-2.76211 5.83127,-4.25422 2.38111,-0.99483 4.59825,-1.10602 4.95272,-0.24327 0.34911,0.85711 -1.29117,2.35458 -3.67764,3.34941 -3.57152,1.49211 -6.25432,1.50255 -7.10635,1.14808 z"
     style="fill:#ffffff;fill-opacity:1;fill-rule:evenodd;stroke:none" />
  <path
     id="path4156"
     d="m 32.45189,32.679345 c -0.35447,-0.85711 -0.33838,-3.55571 1.143,-7.15913 0.98439,-2.39691 2.4765,-4.05835 3.32825,-3.6988 0.84666,0.35475 0.74083,2.58769 -0.24864,4.98461 -1.48167,3.59805 -3.37058,5.51885 -4.22261,5.87332 z"
     style="fill:#ffffff;fill-opacity:1;fill-rule:evenodd;stroke:none" />
  <path
     id="path4158"
     d="m 32.46798,32.679345 c -0.85203,-0.35447 -2.74094,-2.27527 -4.22261,-5.87332 -0.98947,-2.39692 -1.10067,-4.62986 -0.24864,-4.98461 0.85175,-0.35955 2.34414,1.30189 3.32825,3.6988 1.48166,3.60342 1.49211,6.30202 1.143,7.15913 z"
     style="fill:#ffffff;fill-opacity:1;fill-rule:evenodd;stroke:none" />
  <path
     id="path4160"
     d="m 32.43609,32.705875 c -0.84667,0.35447 -3.52919,0.34403 -7.10636,-1.14808 -2.38111,-0.99483 -4.02675,-2.4923 -3.67227,-3.34941 0.35475,-0.86275 2.56652,-0.75156 4.953,0.24327 3.57152,1.49211 5.47652,3.39711 5.82563,4.25422 z"
     style="fill:#ffffff;fill-opacity:1;fill-rule:evenodd;stroke:none" />
  <path
     id="path4162"
     d="m 32.43609,32.700515 c -0.34911,0.85739 -2.25411,2.76211 -5.82563,4.2545 -2.38648,0.98947 -4.59825,1.10067 -4.953,0.24328 -0.35448,-0.85711 1.29116,-2.35458 3.67227,-3.34942 3.57717,-1.49211 6.25969,-1.50791 7.10636,-1.14836 z"
     style="fill:#ffffff;fill-opacity:1;fill-rule:evenodd;stroke:none" />
  <path
     id="path4164"
     d="m 32.46798,32.679345 c 0.34911,0.86276 0.33866,3.57717 -1.143,7.19103 -0.98411,2.40763 -2.4765,4.06908 -3.32825,3.7146 -0.85203,-0.35447 -0.74083,-2.59813 0.24864,-5.00549 1.48167,-3.61414 3.37058,-5.5403 4.22261,-5.90014 z"
     style="fill:#ffffff;fill-opacity:1;fill-rule:evenodd;stroke:none" />
  <path
     id="path4166"
     d="m 32.45189,32.679345 c 0.85203,0.35984 2.74094,2.286 4.22261,5.90014 0.98947,2.40736 1.0953,4.65102 0.24864,5.00549 -0.85175,0.35448 -2.34386,-1.30697 -3.32825,-3.7146 -1.48138,-3.61386 -1.49747,-6.32827 -1.143,-7.19103 z"
     style="fill:#ffffff;fill-opacity:1;fill-rule:evenodd;stroke:none" />
  <path
     id="path4168"
     d="m 32.43609,32.700515 c 0.85203,-0.35955 3.53483,-0.34375 7.10635,1.14836 2.38647,0.99484 4.02675,2.49231 3.67764,3.34942 -0.35447,0.85739 -2.57161,0.74619 -4.95272,-0.24328 -3.5718,-1.49239 -5.4768,-3.39711 -5.83127,-4.2545 z"
     style="fill:#ffffff;fill-opacity:1;fill-rule:evenodd;stroke:none" />
  <path
     id="path4170"
     d="m 30.29317,33.594875 c -0.49755,-1.20114 0.0635,-2.57161 1.25392,-3.0638 1.19069,-0.49728 2.56116,0.0796 3.05844,1.27536 0.49756,1.20114 -0.0686,2.57697 -1.25928,3.06888 -1.19041,0.4922 -2.5558,-0.0793 -3.05308,-1.28044 z"
     style="fill:#ffffff;fill-opacity:1;fill-rule:evenodd;stroke:none" />
  <path
     id="path4172"
     d="m 30.29317,33.594875 c -0.49755,-1.20114 0.0635,-2.57161 1.25392,-3.0638 1.19069,-0.49728 2.56116,0.0796 3.05844,1.27536 0.49756,1.20114 -0.0686,2.57697 -1.25928,3.06888 -1.19041,0.4922 -2.5558,-0.0793 -3.05308,-1.28044"
     style="fill:none;stroke:#000000;stroke-width:1.05827832px;stroke-linecap:round;stroke-linejoin:round;stroke-miterlimit:4;stroke-dasharray:none;stroke-opacity:1" />
</svg>
