<?xml version="1.0" encoding="UTF-8" standalone="no"?>
<svg id="svg4969" xmlns:rdf="http://www.w3.org/1999/02/22-rdf-syntax-ns#" xmlns="http://www.w3.org/2000/svg" height="52.789mm" viewBox="0 0 54.123524 52.789279" width="54.124mm" version="1.0" xmlns:cc="http://creativecommons.org/ns#" xmlns:dc="http://purl.org/dc/elements/1.1/">
 <metadata id="metadata5011">
  <rdf:RDF>
   <cc:Work rdf:about="">
    <dc:format>image/svg+xml</dc:format>
    <dc:type rdf:resource="http://purl.org/dc/dcmitype/StillImage"/>
    <dc:title/>
   </cc:Work>
  </rdf:RDF>
 </metadata>
 <defs id="defs4971">
  <clipPath id="clipEmfPath1" clipPathUnits="userSpaceOnUse">
   <path id="path4974" d="m0.44998 0.44998h1165.7v900.85h-1165.7z"/>
  </clipPath>
 </defs>
 <path id="path4979" stroke-linejoin="round" d="m0.82496 0.82496h1164.8v899.95h-1164.8z" clip-path="url(#clipEmfPath1)" transform="matrix(.28222 0 0 .28222 -138.96 -93.861)" stroke="#868686" stroke-width=".93745px" fill="none"/>
 <path id="path4981" d="m27.059 33.904c0-4.868 0.4764-12.943 8.7839-21.208 5.5454-5.503 12.847-7.1857 16.308-3.7358 3.4606 3.4394 1.778 10.699-3.7567 16.213-8.3182 8.2652-16.435 8.7308-21.335 8.7308-4.8892 0-13.006-0.46567-21.324-8.7308-5.5349-5.5135-7.228-12.773-3.7569-16.213 3.4606-3.4499 10.763-1.7673 16.308 3.7358 8.3075 8.2652 8.7729 16.34 8.7729 21.208 0 3.4076-0.31721 9.0483-6.1378 14.837-3.884 3.8628-8.9956 5.0269-11.419 2.6247-2.4234-2.413-1.2488-7.4927 2.6351-11.355 5.8206-5.7782 11.493-6.1062 14.922-6.1062s9.1118 0.32794 14.932 6.1062c3.8839 3.8628 5.0586 8.9425 2.6351 11.355-2.4234 2.4023-7.5348 1.2381-11.419-2.6247-5.8206-5.7887-6.1488-11.429-6.1488-14.837z" fill-rule="evenodd" fill="#ffd700"/>
 <path id="path4983" stroke-linejoin="round" d="m27.059 33.904c0-4.868 0.4764-12.943 8.7839-21.208 5.5454-5.503 12.847-7.1857 16.308-3.7358 3.4606 3.4394 1.778 10.699-3.7567 16.213-8.3182 8.2652-16.435 8.7308-21.335 8.7308-4.8892 0-13.006-0.46567-21.324-8.7308-5.5349-5.5135-7.228-12.773-3.7569-16.213 3.4606-3.4499 10.763-1.7673 16.308 3.7358 8.3075 8.2652 8.7729 16.34 8.7729 21.208 0 3.4076-0.31721 9.0483-6.1378 14.837-3.884 3.8628-8.9956 5.0269-11.419 2.6247-2.4234-2.413-1.2488-7.4927 2.6351-11.355 5.8206-5.7782 11.493-6.1062 14.922-6.1062s9.1118 0.32794 14.932 6.1062c3.8839 3.8628 5.0586 8.9425 2.6351 11.355-2.4234 2.4023-7.5348 1.2381-11.419-2.6247-5.8206-5.7887-6.1488-11.429-6.1488-14.837" stroke="#000" stroke-width=".34923px" fill="none"/>
 <path id="path4985" d="m27.059 33.904c0-4.3919 0.42334-11.652 7.9053-19.081 4.9742-4.9634 11.546-6.4767 14.657-3.3759 3.1115 3.1008 1.5979 9.641-3.3864 14.594-7.4716 7.4397-14.763 7.863-19.176 7.863-4.4024 0-11.694-0.42333-19.165-7.863-4.9843-4.9527-6.5083-11.493-3.3864-14.594 3.1115-3.1008 9.6726-1.5875 14.657 3.3759 7.482 7.4292 7.8946 14.689 7.8946 19.081 0 3.0689-0.2856 8.1486-5.5242 13.356-3.4815 3.471-8.0851 4.5187-10.265 2.3492-2.1799-2.1694-1.1216-6.7412 2.3707-10.212 5.2383-5.2067 10.34-5.4923 13.419-5.4923 3.0903 0 8.1912 0.28561 13.43 5.4923 3.4818 3.4713 4.5508 8.043 2.3707 10.212-2.1802 2.1694-6.7835 1.1218-10.265-2.3492-5.2386-5.207-5.535-10.287-5.535-13.356z" fill-rule="evenodd" fill="#0f0"/>
 <path id="path4987" stroke-linejoin="round" d="m27.059 33.904c0-4.3919 0.42334-11.652 7.9053-19.081 4.9742-4.9634 11.546-6.4767 14.657-3.3759 3.1115 3.1008 1.5979 9.641-3.3864 14.594-7.4716 7.4397-14.763 7.863-19.176 7.863-4.4024 0-11.694-0.42333-19.165-7.863-4.9843-4.9527-6.5083-11.493-3.3864-14.594 3.1115-3.1008 9.6726-1.5875 14.657 3.3759 7.482 7.4292 7.8946 14.689 7.8946 19.081 0 3.0689-0.2856 8.1486-5.5242 13.356-3.4815 3.471-8.0851 4.5187-10.265 2.3492-2.1799-2.1694-1.1216-6.7412 2.3707-10.212 5.2383-5.2067 10.34-5.4923 13.419-5.4923 3.0903 0 8.1912 0.28561 13.43 5.4923 3.4818 3.4713 4.5508 8.043 2.3707 10.212-2.1802 2.1694-6.7835 1.1218-10.265-2.3492-5.2386-5.207-5.535-10.287-5.535-13.356" stroke="#000" stroke-width=".34923px" fill="none"/>
 <path id="path4989" d="m27.059 33.894c0-3.8944 0.381-10.35 7.0271-16.953 4.4343-4.4131 10.276-5.7571 13.049-2.995 2.7621 2.7514 1.4182 8.5615-3.0161 12.964-6.6458 6.6142-13.133 6.9844-17.059 6.9844-3.9156 0-10.403-0.37028-17.049-6.9844-4.4353-4.403-5.7897-10.213-3.0172-12.965 2.7728-2.7621 8.6145-1.4182 13.049 2.995 6.646 6.6034 7.0163 13.059 7.0163 16.953 0 2.7305-0.254 7.2494-4.9104 11.874-3.1008 3.0903-7.1961 4.0217-9.1327 2.0955-1.9369-1.9262-0.99483-5.9899 2.1059-9.0799 4.6564-4.6248 9.1962-4.8895 11.937-4.8895 2.7517 0 7.2918 0.26472 11.948 4.8895 3.1008 3.09 4.0426 7.1538 2.106 9.0799-1.9366 1.9262-6.0322 0.99484-9.133-2.0955-4.6564-4.6245-4.9211-9.1434-4.9211-11.874z" fill-rule="evenodd" fill="#ff0"/>
 <path id="path4991" stroke-linejoin="round" d="m27.059 33.894c0-3.8944 0.381-10.35 7.0271-16.953 4.4343-4.4131 10.276-5.7571 13.049-2.995 2.7621 2.7514 1.4182 8.5615-3.0161 12.964-6.6458 6.6142-13.133 6.9844-17.059 6.9844-3.9156 0-10.403-0.37028-17.049-6.9844-4.4353-4.403-5.7897-10.213-3.0172-12.965 2.7728-2.7621 8.6145-1.4182 13.049 2.995 6.646 6.6034 7.0163 13.059 7.0163 16.953 0 2.7305-0.254 7.2494-4.9104 11.874-3.1008 3.0903-7.1961 4.0217-9.1327 2.0955-1.9369-1.9262-0.99483-5.9899 2.1059-9.0799 4.6564-4.6248 9.1962-4.8895 11.937-4.8895 2.7517 0 7.2918 0.26472 11.948 4.8895 3.1008 3.09 4.0426 7.1538 2.106 9.0799-1.9366 1.9262-6.0322 0.99484-9.133-2.0955-4.6564-4.6245-4.9211-9.1434-4.9211-11.874" stroke="#000" stroke-width=".34923px" fill="none"/>
 <path id="path4993" d="m27.059 33.894c0-3.4076 0.32823-9.0588 6.1381-14.837 3.8839-3.8628 8.9848-5.0374 11.408-2.6244 2.413 2.4127 1.2381 7.4924-2.6351 11.355-5.8098 5.7782-11.482 6.1062-14.911 6.1062-3.418 0-9.0904-0.32795-14.9-6.1062-3.8732-3.8628-5.0585-8.9425-2.6351-11.355 2.4234-2.413 7.5243-1.2384 11.398 2.6244 5.8206 5.7782 6.1378 11.429 6.1378 14.837 0 2.3918-0.2221 6.3393-4.2966 10.393-2.709 2.6986-6.2755 3.5134-7.9793 1.8308-1.6933-1.6826-0.86783-5.249 1.8412-7.9477 4.0744-4.0428 8.043-4.2757 10.435-4.2757 2.4026 0 6.3709 0.23283 10.435 4.2757 2.7198 2.6986 3.545 6.265 1.8412 7.9477-1.6933 1.6826-5.2595 0.86784-7.9793-1.8308-4.064-4.0533-4.2968-8.0007-4.2968-10.393z" fill-rule="evenodd" fill="#f0f"/>
 <path id="path4995" stroke-linejoin="round" d="m27.059 33.894c0-3.4076 0.32823-9.0588 6.1381-14.837 3.8839-3.8628 8.9848-5.0374 11.408-2.6244 2.413 2.4127 1.2381 7.4924-2.6351 11.355-5.8098 5.7782-11.482 6.1062-14.911 6.1062-3.418 0-9.0904-0.32795-14.9-6.1062-3.8732-3.8628-5.0585-8.9425-2.6351-11.355 2.4234-2.413 7.5243-1.2384 11.398 2.6244 5.8206 5.7782 6.1378 11.429 6.1378 14.837 0 2.3918-0.2221 6.3393-4.2966 10.393-2.709 2.6986-6.2755 3.5134-7.9793 1.8308-1.6933-1.6826-0.86783-5.249 1.8412-7.9477 4.0744-4.0428 8.043-4.2757 10.435-4.2757 2.4026 0 6.3709 0.23283 10.435 4.2757 2.7198 2.6986 3.545 6.265 1.8412 7.9477-1.6933 1.6826-5.2595 0.86784-7.9793-1.8308-4.064-4.0533-4.2968-8.0007-4.2968-10.393" stroke="#000" stroke-width=".34923px" fill="none"/>
 <path id="path4997" d="m27.059 33.894c0-2.9207 0.2859-7.7676 5.2702-12.72 3.3232-3.3124 7.7044-4.3177 9.7787-2.2437 2.074 2.0636 1.0688 6.4239-2.2541 9.7257-4.9846 4.9634-9.8527 5.2383-12.795 5.2383-2.9314 0-7.7995-0.27489-12.784-5.2383-3.3232-3.3017-4.3389-7.662-2.2541-9.7257 2.074-2.074 6.4556-1.0688 9.7784 2.2437 4.9843 4.9527 5.2595 9.7996 5.2595 12.72 0 2.0427-0.1905 5.4291-3.6827 8.9002-2.328 2.3176-5.3865 3.0161-6.847 1.577-1.4498-1.45-0.74083-4.4978 1.5875-6.8154 3.4815-3.4713 6.8893-3.6618 8.9422-3.6618 2.0639 0 5.4714 0.1905 8.9532 3.6618 2.328 2.3176 3.0373 5.3653 1.5875 6.8154-1.4605 1.4391-4.5189 0.74056-6.8473-1.577-3.4922-3.471-3.6934-6.8574-3.6934-8.9002z" fill-rule="evenodd" fill="#00f"/>
 <path id="path4999" stroke-linejoin="round" d="m27.059 33.894c0-2.9207 0.2859-7.7676 5.2702-12.72 3.3232-3.3124 7.7044-4.3177 9.7787-2.2437 2.074 2.0636 1.0688 6.4239-2.2541 9.7257-4.9846 4.9634-9.8527 5.2383-12.795 5.2383-2.9314 0-7.7995-0.27489-12.784-5.2383-3.3232-3.3017-4.3389-7.662-2.2541-9.7257 2.074-2.074 6.4556-1.0688 9.7784 2.2437 4.9843 4.9527 5.2595 9.7996 5.2595 12.72 0 2.0427-0.1905 5.4291-3.6827 8.9002-2.328 2.3176-5.3865 3.0161-6.847 1.577-1.4498-1.45-0.74083-4.4978 1.5875-6.8154 3.4815-3.4713 6.8893-3.6618 8.9422-3.6618 2.0639 0 5.4714 0.1905 8.9532 3.6618 2.328 2.3176 3.0373 5.3653 1.5875 6.8154-1.4605 1.4391-4.5189 0.74056-6.8473-1.577-3.4922-3.471-3.6934-6.8574-3.6934-8.9002" stroke="#000" stroke-width=".34923px" fill="none"/>
 <path id="path5001" d="m27.059 33.894c0-2.4339 0.24356-6.4764 4.4027-10.604 2.7726-2.7514 6.4237-3.598 8.1593-1.8731 1.7249 1.7249 0.88872 5.3549-1.8838 8.1066-4.1591 4.138-8.2228 4.3705-10.678 4.3705-2.4446 0-6.5083-0.23255-10.667-4.3705-2.7726-2.7517-3.6192-6.3816-1.8836-8.1066 1.7354-1.7249 5.3865-0.87827 8.1593 1.8731 4.1588 4.1275 4.3917 8.17 4.3917 10.604 0 1.704-0.1586 4.5189-3.0689 7.4188-1.9473 1.9259-4.4978 2.5081-5.7147 1.312-1.2169-1.2062-0.62427-3.7462 1.3228-5.6828 2.9103-2.8891 5.7466-3.048 7.4608-3.048 1.7252 0 4.5613 0.15889 7.4716 3.048 1.9473 1.9366 2.5293 4.4766 1.3228 5.6828-1.2169 1.1961-3.7674 0.61384-5.7147-1.312-2.9103-2.8998-3.0796-5.7147-3.0796-7.4188z" fill-rule="evenodd" fill="#f00"/>
 <path id="path5003" stroke-linejoin="round" d="m27.059 33.894c0-2.4339 0.24356-6.4764 4.4027-10.604 2.7726-2.7514 6.4237-3.598 8.1593-1.8731 1.7249 1.7249 0.88872 5.3549-1.8838 8.1066-4.1591 4.138-8.2228 4.3705-10.678 4.3705-2.4446 0-6.5083-0.23255-10.667-4.3705-2.7726-2.7517-3.6192-6.3816-1.8836-8.1066 1.7354-1.7249 5.3865-0.87827 8.1593 1.8731 4.1588 4.1275 4.3917 8.17 4.3917 10.604 0 1.704-0.1586 4.5189-3.0689 7.4188-1.9473 1.9259-4.4978 2.5081-5.7147 1.312-1.2169-1.2062-0.62427-3.7462 1.3228-5.6828 2.9103-2.8891 5.7466-3.048 7.4608-3.048 1.7252 0 4.5613 0.15889 7.4716 3.048 1.9473 1.9366 2.5293 4.4766 1.3228 5.6828-1.2169 1.1961-3.7674 0.61384-5.7147-1.312-2.9103-2.8998-3.0796-5.7147-3.0796-7.4188" stroke="#000" stroke-width=".34923px" fill="none"/>
 <path id="path5005" stroke-linejoin="round" d="m27.048 33.873c-0.391-18.478 4.254-33.569 10.361-33.696" stroke="#000" stroke-width=".34923px" fill="none"/>
 <path id="path5007" stroke-linejoin="round" d="m27.075 33.873c0.386-18.483-4.249-33.569-10.366-33.696" stroke="#000" stroke-width=".35452px" fill="none"/>
</svg>
