<?xml version="1.0" encoding="UTF-8" standalone="no"?>
<svg
   xmlns:dc="http://purl.org/dc/elements/1.1/"
   xmlns:cc="http://creativecommons.org/ns#"
   xmlns:rdf="http://www.w3.org/1999/02/22-rdf-syntax-ns#"
   xmlns:svg="http://www.w3.org/2000/svg"
   xmlns="http://www.w3.org/2000/svg"
   viewBox="0 0 71.253876 81.794295"
   id="svg4136"
   height="81.794296mm"
   width="71.253876mm"
   version="1.0">
  <metadata
     id="metadata4154">
    <rdf:RDF>
      <cc:Work
         rdf:about="">
        <dc:format>image/svg+xml</dc:format>
        <dc:type
           rdf:resource="http://purl.org/dc/dcmitype/StillImage" />
        <dc:title></dc:title>
      </cc:Work>
    </rdf:RDF>
  </metadata>
  <defs
     id="defs4138">
    <clipPath
       id="clipEmfPath1"
       clipPathUnits="userSpaceOnUse">
      <path
         id="path4141"
         d="m 0.449977,0.449977 1165.740023,0 0,900.853023 -1165.740023,0 z" />
    </clipPath>
    <pattern
       y="0"
       x="0"
       height="6"
       width="6"
       patternUnits="userSpaceOnUse"
       id="EMFhbasepattern" />
  </defs>
  <path
     transform="matrix(0.28222222,0,0,0.28222222,-130.39579,-82.519315)"
     id="path4146"
     d="m 0.824957,0.824957 1164.835043,0 0,899.953043 -1164.835043,0 z"
     clip-path="url(#clipEmfPath1)"
     style="fill:none;stroke:#868686;stroke-width:0.9374513px;stroke-linecap:butt;stroke-linejoin:round;stroke-miterlimit:4;stroke-dasharray:none;stroke-opacity:1" />
  <path
     id="path4148"
     d="m 0.18505298,20.546545 0.87855002,0 0.43378,-0.762 0.43406,0.762 0.87827,0 0.4445,-0.762 -0.4445,-0.75156 0.87828,0 0.43406,-0.75127 0.4445,0.75127 0.86783,0 -0.43406,0.75156 0.43406,0.762 0.87827,0 0.43378,-0.762 0.4445,0.762 0.86783,0 0.4445,-0.762 -0.4445,-0.75156 0.87828,0 0.43406,-0.75127 -0.43406,-0.75128 -0.87828,0 0.4445,-0.761997 -0.4445,-0.751557 0.87828,0 0.43406,-0.751276 0.4445,0.751276 0.87827,0 0.43378,-0.751276 -0.43378,-0.762 0.86784,0 0.4445,-0.751276 0.43377,0.751276 0.87856,0 -0.4445,0.762 0.4445,0.751276 0.86755,0 0.4445,-0.751276 0.43406,0.751276 0.87827,0 -0.4445,0.751557 0.4445,0.751277 -0.87827,0.0107 -0.43406,0.75128 0.43406,0.75127 0.87827,0 -0.4445,0.75156 0.4445,0.762 0.87828,0 0.43406,-0.762 0.43377,0.762 0.87856,0 0.43378,-0.762 -0.43378,-0.75156 0.87828,0 0.43377,-0.75127 0.43406,0.75127 0.87827,0 -0.43377,0.75156 0.43377,0.762 0.87828,0 0.43406,-0.762 0.43377,0.762 0.87856,0 0.4445,-0.762 -0.4445,-0.75156 0.87828,0 0.43377,-0.75127 -0.43377,-0.762 -0.87828,0 0.4445,-0.751277 -0.4445,-0.751557 0.87828,0 0.43377,-0.751276 0.4445,0.751276 0.86784,0 0.4445,-0.751276 -0.4445,-0.762 0.87827,0 0.43406,-0.751276 -0.43406,-0.751557 -0.87827,0 0.4445,-0.751276 -0.4445,-0.762 -0.86784,0 -0.4445,0.762 -0.43377,-0.762 -0.87828,0 0.4445,-0.751275 -0.4445,-0.7515576 0.87828,0 0.43377,-0.751276 -0.43377,-0.762 -0.87828,0 0.4445,-0.751275 -0.4445,-0.751276 0.87828,0 0.43377,-0.751558 0.4445,0.751558 0.86784,0 0.4445,-0.751558 -0.4445,-0.762 0.87827,0 0.43406,-0.751275 0.4445,0.751275 0.86783,0 -0.43406,0.762 0.43406,0.751558 0.87828,0 0.43377,-0.751558 0.4445,0.751558 0.87856,0 0.43378,-0.751558 -0.43378,-0.762 0.86783,0 0.44422,-0.751275 -0.44422,-0.751276 -0.86783,0 0.43378,-0.751558 -0.43378,-0.762 0.86783,0 0.44422,-0.751275 0.43406,0.751275 0.87828,0 0.43405,-0.751275 -0.43405,-0.75127599 0.86783,0 0.4445,-0.762 0.43377,0.762 0.87856,0 -0.4445,0.75127599 0.4445,0.751275 0.87828,0 0.43377,-0.751275 0.43406,0.751275 0.87828,0 -0.43378,0.762 0.43378,0.751558 -0.87828,0 -0.43406,0.751276 0.43406,0.751275 0.87828,0 -0.43378,0.762 0.43378,0.751558 0.87855,0 0.43378,-0.751558 0.43378,0.751558 0.87855,0 0.43378,-0.751558 -0.43378,-0.762 0.87828,0 0.43377,-0.751275 0.43406,0.751275 0.87828,0 -0.43378,0.762 0.43378,0.751558 0.87856,0 0.43377,-0.751558 0.4445,0.751558 0.86783,0 -0.43405,0.751276 0.43405,0.751275 -0.86783,0 -0.4445,0.762 0.4445,0.751276 0.86783,0 -0.43405,0.7515576 0.43405,0.751275 -0.86783,0 -0.4445,0.762 -0.43377,-0.762 -0.87856,0 -0.43378,0.762 0.43378,0.751276 -0.87828,0 -0.43406,0.751557 0.43406,0.751276 0.87828,0 -0.43378,0.762 0.43378,0.751276 0.87856,0 0.43377,-0.751276 0.4445,0.751276 0.86783,0 -0.43405,0.751557 0.43405,0.751277 -0.86783,0 -0.4445,0.762 0.4445,0.75127 0.86783,0 -0.43405,0.75156 0.43405,0.75128 0.87828,0 0.43406,-0.75128 0.44422,0.75128 0.86783,0 0.4445,-0.75128 -0.4445,-0.75156 0.87856,0 0.43377,-0.75127 0.4445,0.75127 0.87828,0 -0.4445,0.75156 0.4445,0.75128 0.86783,0 0.4445,-0.75128 0.43378,0.75128 0.87855,0 0.43378,-0.75128 -0.43378,-0.75156 0.86784,0 0.4445,-0.75127 -0.4445,-0.762 -0.86784,0 0.43378,-0.751277 -0.43378,-0.751557 0.86784,0 0.4445,-0.751276 0.43377,0.751276 0.87828,0 0.43406,-0.751276 -0.43406,-0.762 0.87856,0 0.43377,-0.751276 0.43406,0.751276 0.87828,0 -0.43406,0.762 0.43406,0.751276 0.87827,0 0.43406,-0.751276 0.43377,0.751276 0.87828,0 -0.43378,0.751557 0.43378,0.751277 -0.87828,0 -0.43377,0.762 0.43377,0.75127 0.87828,0 -0.43378,0.75156 0.43378,0.75128 0.87856,0 0.43377,-0.75128 0.43406,0.75128 0.87828,0 0.4445,-0.75128 -0.4445,-0.75156 0.87827,0 0.43406,-0.75127 0.4445,0.75127 0.86755,0 -0.43377,0.75156 0.43377,0.75128 0.87856,0 0.43377,-0.75128 0.4445,0.75128 0.86784,0 -0.43378,0.762 0.43378,0.75127 -0.86784,0 -0.4445,0.75156 0.4445,0.75128 0.86784,0 -0.43378,0.762 0.43378,0.75127 -0.86784,0 -0.4445,0.75156 -0.43377,-0.75156 -0.87856,0 -0.43377,0.75156 0.43377,0.76172 -0.86755,0 -0.4445,0.75156 0.4445,0.75127 0.86755,0 -0.43377,0.75156 0.43377,0.76172 0.87856,0 0.43377,-0.76172 0.4445,0.76172 0.86784,0 -0.43378,0.75155 0.43378,0.75128 -0.86784,0 -0.4445,0.75128 0.4445,0.762 0.86784,0 -0.43378,0.75155 0.43378,0.75128 -0.86784,0 -0.4445,0.75127 -0.43377,-0.75127 -0.87856,0 -0.43377,0.75127 0.43377,0.762 -0.86755,0 -0.4445,0.75156 -0.43406,-0.75156 -0.87827,0 0.4445,-0.762 -0.4445,-0.75127 -0.87828,0 -0.43406,0.75127 -0.43377,-0.75127 -0.87856,0 -0.43378,0.75127 0.43378,0.762 -0.87828,0 -0.43377,0.75156 0.43377,0.75128 0.87828,0 -0.43378,0.75127 0.43378,0.762 -0.87828,0 -0.43377,0.75156 -0.43406,-0.75156 -0.87827,0 -0.43406,0.75156 0.43406,0.75128 -0.87828,0 -0.43406,0.75127 0.43406,0.762 0.87828,0 -0.43406,0.75156 0.43406,0.75128 0.87827,0 0.43406,-0.75128 0.43377,0.75128 0.87828,0 -0.43378,0.762 0.43378,0.75127 -0.87828,0 -0.43377,0.75128 0.43377,0.75155 0.87828,0 -0.43378,0.762 0.43378,0.75128 0.87856,0 0.43377,-0.75128 0.43406,0.75128 0.87828,0 0.4445,-0.75128 -0.4445,-0.762 0.87827,0 0.43406,-0.75155 0.4445,0.75155 0.86755,0 -0.43377,0.762 0.43377,0.75128 0.87856,0 0.43377,-0.75128 0.4445,0.75128 0.86784,0 -0.43378,0.75128 0.43378,0.75155 -0.86784,0 -0.4445,0.762 0.4445,0.75128 0.86784,0 -0.43378,0.75127 0.43378,0.75156 -0.86784,0 -0.4445,0.762 -0.43377,-0.762 -0.87856,0 -0.43377,0.762 0.43377,0.75128 -0.86755,0 -0.4445,0.75127 0.4445,0.75156 0.86755,0 -0.43377,0.762 0.43377,0.75128 0.87856,0 0.43377,-0.75128 0.4445,0.75128 0.86784,0 -0.43378,0.75127 0.43378,0.75156 -0.86784,0 -0.4445,0.76172 0.4445,0.75156 0.86784,0 -0.43378,0.75127 0.43378,0.75156 -0.86784,0 -0.4445,0.76172 -0.43377,-0.76172 -0.87856,0 -0.43377,0.76172 0.43377,0.75155 -0.86755,0 -0.4445,0.75128 -0.43406,-0.75128 -0.87827,0 0.43377,-0.75155 -0.43377,-0.76172 -0.87828,0 -0.43406,0.76172 -0.43377,-0.76172 -0.87856,0 -0.43378,0.76172 0.43378,0.75155 -0.87828,0 -0.43377,0.75128 0.43377,0.762 0.87828,0 -0.43378,0.75128 0.43378,0.75155 -0.87828,0 -0.43377,0.75128 -0.43406,-0.75128 -0.87827,0 -0.4445,0.75128 0.4445,0.762 -0.87828,0 -0.43406,0.75127 -0.4445,-0.75127 -0.86783,0 0.43406,-0.762 -0.43406,-0.75128 -0.87828,0 -0.43377,0.75128 -0.4445,-0.75128 -0.86784,0 0.43378,-0.75155 -0.43378,-0.75128 0.86784,0 0.4445,-0.762 -0.4445,-0.75128 -0.86784,0 0.43378,-0.75155 -0.43378,-0.76172 -0.87855,0 -0.44422,0.76172 -0.43406,-0.76172 -0.87827,0 -0.43406,0.76172 0.43406,0.75155 -0.86784,0 -0.4445,0.75128 -0.43377,-0.75128 -0.87856,0 0.4445,-0.75155 -0.4445,-0.76172 -0.86783,0 -0.44422,0.76172 -0.43406,-0.76172 -0.87828,0 -0.43405,0.76172 0.43405,0.75155 -0.87855,0 -0.43378,0.75128 0.43378,0.75128 0.87855,0 -0.43405,0.762 0.43405,0.75155 -0.87855,0 -0.43378,0.75128 -0.43377,-0.75128 -0.87856,0 -0.43378,0.75128 0.43378,0.762 -0.87828,0 -0.43406,0.75127 0.43406,0.75156 0.87828,0 -0.43378,0.75128 0.43378,0.762 0.87856,0 0.43377,-0.762 0.43378,0.762 0.87855,0 -0.43405,0.75127 0.43405,0.75156 -0.87855,0 -0.43378,0.75128 0.43378,0.762 0.87855,0 -0.43405,0.75127 0.43405,0.75156 -0.87855,0 -0.43378,0.75128 -0.43377,-0.75128 -0.87856,0 -0.43378,0.75128 0.43378,0.762 -0.87828,0 -0.43406,0.75127 -0.43377,-0.75127 -0.87828,0 0.43378,-0.762 -0.43378,-0.75128 -0.87855,0 -0.43378,0.75128 -0.4445,-0.75128 -0.86783,0 -0.4445,0.75128 0.4445,0.762 -0.87828,0 -0.43406,0.75127 0.43406,0.75128 0.87828,0 -0.4445,0.75155 0.4445,0.762 -0.87828,0 -0.43406,0.75128 -0.44421,-0.75128 -0.86784,0 -0.4445,0.75128 0.4445,0.75128 -0.87856,0 -0.4445,0.75155 -0.43377,-0.75155 -0.87828,0 0.4445,-0.75128 -0.4445,-0.75128 -0.86783,0 -0.4445,0.75128 -0.43378,-0.75128 -0.87855,0 0.4445,-0.762 -0.4445,-0.75155 0.87855,0 0.43378,-0.75128 -0.43378,-0.75127 -0.87855,0 0.4445,-0.762 -0.4445,-0.75128 -0.86784,0 -0.4445,0.75128 -0.43377,-0.75128 -0.87828,0 -0.43406,0.75128 0.43406,0.762 -0.87856,0 -0.43377,0.75127 -0.43406,-0.75127 -0.87827,0 0.43405,-0.762 -0.43405,-0.75128 -0.87828,0 -0.43406,0.75128 -0.43377,-0.75128 -0.87828,0 0.43378,-0.75156 -0.43378,-0.75127 0.87828,0 0.43377,-0.762 -0.43377,-0.75128 -0.87828,0 0.43378,-0.75156 -0.43378,-0.75127 0.87828,0 0.43377,-0.762 0.43406,0.762 0.87828,0 0.43405,-0.762 -0.43405,-0.75128 0.87827,0 0.43406,-0.75156 -0.43406,-0.762 -0.87827,0 0.43405,-0.75127 -0.43405,-0.75128 -0.87828,0 -0.43406,0.75128 -0.43377,-0.75128 -0.87828,0 0.43378,-0.75155 -0.43378,-0.762 0.87828,0 0.43377,-0.75128 -0.43377,-0.75128 -0.87828,0 0.43378,-0.75155 -0.43378,-0.76172 -0.87856,0 -0.43377,0.76172 -0.4445,-0.76172 -0.86784,0 -0.4445,0.76172 0.4445,0.75155 -0.87827,0 -0.43406,0.75128 -0.4445,-0.75128 -0.86755,0 0.43378,-0.75155 -0.43378,-0.76172 -0.87856,0 -0.4445,0.76172 -0.43377,-0.76172 -0.87828,0 -0.43406,0.76172 0.43406,0.75155 -0.86783,0 -0.4445,0.75128 0.4445,0.75128 0.86783,0 -0.43406,0.762 0.43406,0.75155 -0.86783,0 -0.4445,0.75128 -0.43406,-0.75128 -0.87828,0 -0.43377,0.75128 0.43377,0.75127 -0.86783,0 -0.4445,0.762 -0.43377,-0.762 -0.87828,0 0.43378,-0.75127 -0.43378,-0.75128 -0.87856,0 -0.43377,0.75128 -0.43406,-0.75128 -0.87828,0 0.43378,-0.75155 -0.43378,-0.762 0.87828,0 0.43406,-0.75128 -0.43406,-0.75128 -0.87828,0 0.43378,-0.75155 -0.43378,-0.76172 -0.87827,0 -0.43406,0.76172 -0.43378,-0.76172 -0.87827,0 -0.4445,0.76172 0.4445,0.75155 -0.87856,0 -0.43377,0.75128 -0.4445,-0.75128 -0.86784,0 0.43378,-0.75155 -0.43378,-0.76172 -0.87827,0 -0.43406,0.76172 -0.4445,-0.76172 -0.86783002,0 0.43405,-0.75156 -0.43405,-0.75127 0.86783002,0 0.4445,-0.75156 -0.4445,-0.76172 -0.86783002,0 0.43405,-0.75156 -0.43405,-0.75127 0.86783002,0 0.4445,-0.75128 0.43406,0.75128 0.87827,0 0.43378,-0.75128 -0.43378,-0.762 0.86784,0 0.4445,-0.75156 -0.4445,-0.75127 -0.86784,0 0.43378,-0.762 -0.43378,-0.75128 -0.87827,0 -0.43406,0.75128 -0.4445,-0.75128 -0.86783002,0 0.43405,-0.75156 -0.43405,-0.75127 0.86783002,0 0.4445,-0.762 -0.4445,-0.75128 -0.86783002,0 0.43405,-0.75155 -0.43405,-0.75128 0.86783002,0 0.4445,-0.762 0.43406,0.762 0.87827,0 0.43378,-0.762 -0.43378,-0.75128 0.86784,0 0.4445,-0.75155 0.43377,0.75155 0.87856,0 -0.4445,0.75128 0.4445,0.762 0.87827,0 0.43378,-0.762 0.43406,0.762 0.87827,0 0.43378,-0.762 -0.43378,-0.75128 0.87828,0 0.43406,-0.75155 -0.43406,-0.75128 -0.87828,0 0.43378,-0.762 -0.43378,-0.75127 0.87828,0 0.43406,-0.75128 0.43377,0.75128 0.87856,0 0.43378,-0.75128 -0.43378,-0.762 0.87828,0 0.43377,-0.75156 -0.43377,-0.75127 -0.87828,0 0.43378,-0.75128 -0.43378,-0.762 -0.87856,0 -0.43377,0.762 -0.43406,-0.762 -0.87828,0 0.43378,-0.75156 -0.43378,-0.75127 0.87828,0 0.43406,-0.75128 -0.43406,-0.762 -0.87828,0 0.43378,-0.75156 -0.43378,-0.75127 -0.87827,0 -0.43406,0.75127 -0.4445,-0.75127 -0.86755,0 -0.4445,0.75127 0.4445,0.75156 -0.87856,0 -0.43377,0.762 -0.4445,-0.762 -0.86784,0 0.43378,-0.75156 -0.43378,-0.75127 -0.87827,0 -0.43406,0.75127 -0.4445,-0.75127 -0.87828002,0 0.4445,-0.75128 -0.4445,-0.762 0.87828002,0 0.4445,-0.75155 -0.4445,-0.75128 -0.87828002,0 0.4445,-0.75128 -0.4445,-0.762 0.87828002,0 0.4445,-0.75127 0.43406,0.75127 0.87827,0 0.43378,-0.75127 -0.43378,-0.75156 0.86784,0 0.4445,-0.762 -0.4445,-0.75127 -0.86784,0 0.43378,-0.75128 -0.43378,-0.75156 -0.87827,0 -0.43406,0.75156 -0.4445,-0.75156 -0.87828002,0 0.4445,-0.762 -0.4445,-0.75127 0.87828002,0 0.4445,-0.75128 -0.4445,-0.75156 -0.87828002,0 0.4445,-0.762 -0.4445,-0.75127 z"
     style="fill:#ffff00;fill-opacity:1;fill-rule:evenodd;stroke:none" />
  <path
     id="path4150"
     d="m 0.18505298,20.546545 0.87855002,0 0.43378,-0.762 0.43406,0.762 0.87827,0 0.4445,-0.762 -0.4445,-0.75156 0.87828,0 0.43406,-0.75127 0.4445,0.75127 0.86783,0 -0.43406,0.75156 0.43406,0.762 0.87827,0 0.43378,-0.762 0.4445,0.762 0.86783,0 0.4445,-0.762 -0.4445,-0.75156 0.87828,0 0.43406,-0.75127 -0.43406,-0.75128 -0.87828,0 0.4445,-0.761997 -0.4445,-0.751557 0.87828,0 0.43406,-0.751276 0.4445,0.751276 0.87827,0 0.43378,-0.751276 -0.43378,-0.762 0.86784,0 0.4445,-0.751276 0.43377,0.751276 0.87856,0 -0.4445,0.762 0.4445,0.751276 0.86755,0 0.4445,-0.751276 0.43406,0.751276 0.87827,0 -0.4445,0.751557 0.4445,0.751277 -0.87827,0.0107 -0.43406,0.75128 0.43406,0.75127 0.87827,0 -0.4445,0.75156 0.4445,0.762 0.87828,0 0.43406,-0.762 0.43377,0.762 0.87856,0 0.43378,-0.762 -0.43378,-0.75156 0.87828,0 0.43377,-0.75127 0.43406,0.75127 0.87827,0 -0.43377,0.75156 0.43377,0.762 0.87828,0 0.43406,-0.762 0.43377,0.762 0.87856,0 0.4445,-0.762 -0.4445,-0.75156 0.87828,0 0.43377,-0.75127 -0.43377,-0.762 -0.87828,0 0.4445,-0.751277 -0.4445,-0.751557 0.87828,0 0.43377,-0.751276 0.4445,0.751276 0.86784,0 0.4445,-0.751276 -0.4445,-0.762 0.87827,0 0.43406,-0.751276 -0.43406,-0.751557 -0.87827,0 0.4445,-0.751276 -0.4445,-0.762 -0.86784,0 -0.4445,0.762 -0.43377,-0.762 -0.87828,0 0.4445,-0.751275 -0.4445,-0.7515576 0.87828,0 0.43377,-0.751276 -0.43377,-0.762 -0.87828,0 0.4445,-0.751275 -0.4445,-0.751276 0.87828,0 0.43377,-0.751558 0.4445,0.751558 0.86784,0 0.4445,-0.751558 -0.4445,-0.762 0.87827,0 0.43406,-0.751275 0.4445,0.751275 0.86783,0 -0.43406,0.762 0.43406,0.751558 0.87828,0 0.43377,-0.751558 0.4445,0.751558 0.87856,0 0.43378,-0.751558 -0.43378,-0.762 0.86783,0 0.44422,-0.751275 -0.44422,-0.751276 -0.86783,0 0.43378,-0.751558 -0.43378,-0.762 0.86783,0 0.44422,-0.751275 0.43406,0.751275 0.87828,0 0.43405,-0.751275 -0.43405,-0.75127599 0.86783,0 0.4445,-0.762 0.43377,0.762 0.87856,0 -0.4445,0.75127599 0.4445,0.751275 0.87828,0 0.43377,-0.751275 0.43406,0.751275 0.87828,0 -0.43378,0.762 0.43378,0.751558 -0.87828,0 -0.43406,0.751276 0.43406,0.751275 0.87828,0 -0.43378,0.762 0.43378,0.751558 0.87855,0 0.43378,-0.751558 0.43378,0.751558 0.87855,0 0.43378,-0.751558 -0.43378,-0.762 0.87828,0 0.43377,-0.751275 0.43406,0.751275 0.87828,0 -0.43378,0.762 0.43378,0.751558 0.87856,0 0.43377,-0.751558 0.4445,0.751558 0.86783,0 -0.43405,0.751276 0.43405,0.751275 -0.86783,0 -0.4445,0.762 0.4445,0.751276 0.86783,0 -0.43405,0.7515576 0.43405,0.751275 -0.86783,0 -0.4445,0.762 -0.43377,-0.762 -0.87856,0 -0.43378,0.762 0.43378,0.751276 -0.87828,0 -0.43406,0.751557 0.43406,0.751276 0.87828,0 -0.43378,0.762 0.43378,0.751276 0.87856,0 0.43377,-0.751276 0.4445,0.751276 0.86783,0 -0.43405,0.751557 0.43405,0.751277 -0.86783,0 -0.4445,0.762 0.4445,0.75127 0.86783,0 -0.43405,0.75156 0.43405,0.75128 0.87828,0 0.43406,-0.75128 0.44422,0.75128 0.86783,0 0.4445,-0.75128 -0.4445,-0.75156 0.87856,0 0.43377,-0.75127 0.4445,0.75127 0.87828,0 -0.4445,0.75156 0.4445,0.75128 0.86783,0 0.4445,-0.75128 0.43378,0.75128 0.87855,0 0.43378,-0.75128 -0.43378,-0.75156 0.86784,0 0.4445,-0.75127 -0.4445,-0.762 -0.86784,0 0.43378,-0.751277 -0.43378,-0.751557 0.86784,0 0.4445,-0.751276 0.43377,0.751276 0.87828,0 0.43406,-0.751276 -0.43406,-0.762 0.87856,0 0.43377,-0.751276 0.43406,0.751276 0.87828,0 -0.43406,0.762 0.43406,0.751276 0.87827,0 0.43406,-0.751276 0.43377,0.751276 0.87828,0 -0.43378,0.751557 0.43378,0.751277 -0.87828,0 -0.43377,0.762 0.43377,0.75127 0.87828,0 -0.43378,0.75156 0.43378,0.75128 0.87856,0 0.43377,-0.75128 0.43406,0.75128 0.87828,0 0.4445,-0.75128 -0.4445,-0.75156 0.87827,0 0.43406,-0.75127 0.4445,0.75127 0.86755,0 -0.43377,0.75156 0.43377,0.75128 0.87856,0 0.43377,-0.75128 0.4445,0.75128 0.86784,0 -0.43378,0.762 0.43378,0.75127 -0.86784,0 -0.4445,0.75156 0.4445,0.75128 0.86784,0 -0.43378,0.762 0.43378,0.75127 -0.86784,0 -0.4445,0.75156 -0.43377,-0.75156 -0.87856,0 -0.43377,0.75156 0.43377,0.76172 -0.86755,0 -0.4445,0.75156 0.4445,0.75127 0.86755,0 -0.43377,0.75156 0.43377,0.76172 0.87856,0 0.43377,-0.76172 0.4445,0.76172 0.86784,0 -0.43378,0.75155 0.43378,0.75128 -0.86784,0 -0.4445,0.75128 0.4445,0.762 0.86784,0 -0.43378,0.75155 0.43378,0.75128 -0.86784,0 -0.4445,0.75127 -0.43377,-0.75127 -0.87856,0 -0.43377,0.75127 0.43377,0.762 -0.86755,0 -0.4445,0.75156 -0.43406,-0.75156 -0.87827,0 0.4445,-0.762 -0.4445,-0.75127 -0.87828,0 -0.43406,0.75127 -0.43377,-0.75127 -0.87856,0 -0.43378,0.75127 0.43378,0.762 -0.87828,0 -0.43377,0.75156 0.43377,0.75128 0.87828,0 -0.43378,0.75127 0.43378,0.762 -0.87828,0 -0.43377,0.75156 -0.43406,-0.75156 -0.87827,0 -0.43406,0.75156 0.43406,0.75128 -0.87828,0 -0.43406,0.75127 0.43406,0.762 0.87828,0 -0.43406,0.75156 0.43406,0.75128 0.87827,0 0.43406,-0.75128 0.43377,0.75128 0.87828,0 -0.43378,0.762 0.43378,0.75127 -0.87828,0 -0.43377,0.75128 0.43377,0.75155 0.87828,0 -0.43378,0.762 0.43378,0.75128 0.87856,0 0.43377,-0.75128 0.43406,0.75128 0.87828,0 0.4445,-0.75128 -0.4445,-0.762 0.87827,0 0.43406,-0.75155 0.4445,0.75155 0.86755,0 -0.43377,0.762 0.43377,0.75128 0.87856,0 0.43377,-0.75128 0.4445,0.75128 0.86784,0 -0.43378,0.75128 0.43378,0.75155 -0.86784,0 -0.4445,0.762 0.4445,0.75128 0.86784,0 -0.43378,0.75127 0.43378,0.75156 -0.86784,0 -0.4445,0.762 -0.43377,-0.762 -0.87856,0 -0.43377,0.762 0.43377,0.75128 -0.86755,0 -0.4445,0.75127 0.4445,0.75156 0.86755,0 -0.43377,0.762 0.43377,0.75128 0.87856,0 0.43377,-0.75128 0.4445,0.75128 0.86784,0 -0.43378,0.75127 0.43378,0.75156 -0.86784,0 -0.4445,0.76172 0.4445,0.75156 0.86784,0 -0.43378,0.75127 0.43378,0.75156 -0.86784,0 -0.4445,0.76172 -0.43377,-0.76172 -0.87856,0 -0.43377,0.76172 0.43377,0.75155 -0.86755,0 -0.4445,0.75128 -0.43406,-0.75128 -0.87827,0 0.43377,-0.75155 -0.43377,-0.76172 -0.87828,0 -0.43406,0.76172 -0.43377,-0.76172 -0.87856,0 -0.43378,0.76172 0.43378,0.75155 -0.87828,0 -0.43377,0.75128 0.43377,0.762 0.87828,0 -0.43378,0.75128 0.43378,0.75155 -0.87828,0 -0.43377,0.75128 -0.43406,-0.75128 -0.87827,0 -0.4445,0.75128 0.4445,0.762 -0.87828,0 -0.43406,0.75127 -0.4445,-0.75127 -0.86783,0 0.43406,-0.762 -0.43406,-0.75128 -0.87828,0 -0.43377,0.75128 -0.4445,-0.75128 -0.86784,0 0.43378,-0.75155 -0.43378,-0.75128 0.86784,0 0.4445,-0.762 -0.4445,-0.75128 -0.86784,0 0.43378,-0.75155 -0.43378,-0.76172 -0.87855,0 -0.44422,0.76172 -0.43406,-0.76172 -0.87827,0 -0.43406,0.76172 0.43406,0.75155 -0.86784,0 -0.4445,0.75128 -0.43377,-0.75128 -0.87856,0 0.4445,-0.75155 -0.4445,-0.76172 -0.86783,0 -0.44422,0.76172 -0.43406,-0.76172 -0.87828,0 -0.43405,0.76172 0.43405,0.75155 -0.87855,0 -0.43378,0.75128 0.43378,0.75128 0.87855,0 -0.43405,0.762 0.43405,0.75155 -0.87855,0 -0.43378,0.75128 -0.43377,-0.75128 -0.87856,0 -0.43378,0.75128 0.43378,0.762 -0.87828,0 -0.43406,0.75127 0.43406,0.75156 0.87828,0 -0.43378,0.75128 0.43378,0.762 0.87856,0 0.43377,-0.762 0.43378,0.762 0.87855,0 -0.43405,0.75127 0.43405,0.75156 -0.87855,0 -0.43378,0.75128 0.43378,0.762 0.87855,0 -0.43405,0.75127 0.43405,0.75156 -0.87855,0 -0.43378,0.75128 -0.43377,-0.75128 -0.87856,0 -0.43378,0.75128 0.43378,0.762 -0.87828,0 -0.43406,0.75127 -0.43377,-0.75127 -0.87828,0 0.43378,-0.762 -0.43378,-0.75128 -0.87855,0 -0.43378,0.75128 -0.4445,-0.75128 -0.86783,0 -0.4445,0.75128 0.4445,0.762 -0.87828,0 -0.43406,0.75127 0.43406,0.75128 0.87828,0 -0.4445,0.75155 0.4445,0.762 -0.87828,0 -0.43406,0.75128 -0.44421,-0.75128 -0.86784,0 -0.4445,0.75128 0.4445,0.75128 -0.87856,0 -0.4445,0.75155 -0.43377,-0.75155 -0.87828,0 0.4445,-0.75128 -0.4445,-0.75128 -0.86783,0 -0.4445,0.75128 -0.43378,-0.75128 -0.87855,0 0.4445,-0.762 -0.4445,-0.75155 0.87855,0 0.43378,-0.75128 -0.43378,-0.75127 -0.87855,0 0.4445,-0.762 -0.4445,-0.75128 -0.86784,0 -0.4445,0.75128 -0.43377,-0.75128 -0.87828,0 -0.43406,0.75128 0.43406,0.762 -0.87856,0 -0.43377,0.75127 -0.43406,-0.75127 -0.87827,0 0.43405,-0.762 -0.43405,-0.75128 -0.87828,0 -0.43406,0.75128 -0.43377,-0.75128 -0.87828,0 0.43378,-0.75156 -0.43378,-0.75127 0.87828,0 0.43377,-0.762 -0.43377,-0.75128 -0.87828,0 0.43378,-0.75156 -0.43378,-0.75127 0.87828,0 0.43377,-0.762 0.43406,0.762 0.87828,0 0.43405,-0.762 -0.43405,-0.75128 0.87827,0 0.43406,-0.75156 -0.43406,-0.762 -0.87827,0 0.43405,-0.75127 -0.43405,-0.75128 -0.87828,0 -0.43406,0.75128 -0.43377,-0.75128 -0.87828,0 0.43378,-0.75155 -0.43378,-0.762 0.87828,0 0.43377,-0.75128 -0.43377,-0.75128 -0.87828,0 0.43378,-0.75155 -0.43378,-0.76172 -0.87856,0 -0.43377,0.76172 -0.4445,-0.76172 -0.86784,0 -0.4445,0.76172 0.4445,0.75155 -0.87827,0 -0.43406,0.75128 -0.4445,-0.75128 -0.86755,0 0.43378,-0.75155 -0.43378,-0.76172 -0.87856,0 -0.4445,0.76172 -0.43377,-0.76172 -0.87828,0 -0.43406,0.76172 0.43406,0.75155 -0.86783,0 -0.4445,0.75128 0.4445,0.75128 0.86783,0 -0.43406,0.762 0.43406,0.75155 -0.86783,0 -0.4445,0.75128 -0.43406,-0.75128 -0.87828,0 -0.43377,0.75128 0.43377,0.75127 -0.86783,0 -0.4445,0.762 -0.43377,-0.762 -0.87828,0 0.43378,-0.75127 -0.43378,-0.75128 -0.87856,0 -0.43377,0.75128 -0.43406,-0.75128 -0.87828,0 0.43378,-0.75155 -0.43378,-0.762 0.87828,0 0.43406,-0.75128 -0.43406,-0.75128 -0.87828,0 0.43378,-0.75155 -0.43378,-0.76172 -0.87827,0 -0.43406,0.76172 -0.43378,-0.76172 -0.87827,0 -0.4445,0.76172 0.4445,0.75155 -0.87856,0 -0.43377,0.75128 -0.4445,-0.75128 -0.86784,0 0.43378,-0.75155 -0.43378,-0.76172 -0.87827,0 -0.43406,0.76172 -0.4445,-0.76172 -0.86783002,0 0.43405,-0.75156 -0.43405,-0.75127 0.86783002,0 0.4445,-0.75156 -0.4445,-0.76172 -0.86783002,0 0.43405,-0.75156 -0.43405,-0.75127 0.86783002,0 0.4445,-0.75128 0.43406,0.75128 0.87827,0 0.43378,-0.75128 -0.43378,-0.762 0.86784,0 0.4445,-0.75156 -0.4445,-0.75127 -0.86784,0 0.43378,-0.762 -0.43378,-0.75128 -0.87827,0 -0.43406,0.75128 -0.4445,-0.75128 -0.86783002,0 0.43405,-0.75156 -0.43405,-0.75127 0.86783002,0 0.4445,-0.762 -0.4445,-0.75128 -0.86783002,0 0.43405,-0.75155 -0.43405,-0.75128 0.86783002,0 0.4445,-0.762 0.43406,0.762 0.87827,0 0.43378,-0.762 -0.43378,-0.75128 0.86784,0 0.4445,-0.75155 0.43377,0.75155 0.87856,0 -0.4445,0.75128 0.4445,0.762 0.87827,0 0.43378,-0.762 0.43406,0.762 0.87827,0 0.43378,-0.762 -0.43378,-0.75128 0.87828,0 0.43406,-0.75155 -0.43406,-0.75128 -0.87828,0 0.43378,-0.762 -0.43378,-0.75127 0.87828,0 0.43406,-0.75128 0.43377,0.75128 0.87856,0 0.43378,-0.75128 -0.43378,-0.762 0.87828,0 0.43377,-0.75156 -0.43377,-0.75127 -0.87828,0 0.43378,-0.75128 -0.43378,-0.762 -0.87856,0 -0.43377,0.762 -0.43406,-0.762 -0.87828,0 0.43378,-0.75156 -0.43378,-0.75127 0.87828,0 0.43406,-0.75128 -0.43406,-0.762 -0.87828,0 0.43378,-0.75156 -0.43378,-0.75127 -0.87827,0 -0.43406,0.75127 -0.4445,-0.75127 -0.86755,0 -0.4445,0.75127 0.4445,0.75156 -0.87856,0 -0.43377,0.762 -0.4445,-0.762 -0.86784,0 0.43378,-0.75156 -0.43378,-0.75127 -0.87827,0 -0.43406,0.75127 -0.4445,-0.75127 -0.87828002,0 0.4445,-0.75128 -0.4445,-0.762 0.87828002,0 0.4445,-0.75155 -0.4445,-0.75128 -0.87828002,0 0.4445,-0.75128 -0.4445,-0.762 0.87828002,0 0.4445,-0.75127 0.43406,0.75127 0.87827,0 0.43378,-0.75127 -0.43378,-0.75156 0.86784,0 0.4445,-0.762 -0.4445,-0.75127 -0.86784,0 0.43378,-0.75128 -0.43378,-0.75156 -0.87827,0 -0.43406,0.75156 -0.4445,-0.75156 -0.87828002,0 0.4445,-0.762 -0.4445,-0.75127 0.87828002,0 0.4445,-0.75128 -0.4445,-0.75156 -0.87828002,0 0.4445,-0.762 -0.4445,-0.75127"
     style="fill:none;stroke:#000000;stroke-width:0.34923184px;stroke-linecap:butt;stroke-linejoin:round;stroke-miterlimit:4;stroke-dasharray:none;stroke-opacity:1" />
</svg>
