<?xml version="1.0" encoding="UTF-8" standalone="no"?>
<svg
   xmlns:dc="http://purl.org/dc/elements/1.1/"
   xmlns:cc="http://creativecommons.org/ns#"
   xmlns:rdf="http://www.w3.org/1999/02/22-rdf-syntax-ns#"
   xmlns:svg="http://www.w3.org/2000/svg"
   xmlns="http://www.w3.org/2000/svg"
   viewBox="0 0 53.096427 52.615191"
   id="svg4178"
   height="52.615192mm"
   width="53.096428mm"
   version="1.0">
  <metadata
     id="metadata4208">
    <rdf:RDF>
      <cc:Work
         rdf:about="">
        <dc:format>image/svg+xml</dc:format>
        <dc:type
           rdf:resource="http://purl.org/dc/dcmitype/StillImage" />
        <dc:title></dc:title>
      </cc:Work>
    </rdf:RDF>
  </metadata>
  <defs
     id="defs4180">
    <clipPath
       id="clipEmfPath1"
       clipPathUnits="userSpaceOnUse">
      <path
         id="path4183"
         d="m 0.449977,0.449977 1151.190023,0 0,900.853023 -1151.190023,0 z" />
    </clipPath>
    <pattern
       y="0"
       x="0"
       height="6"
       width="6"
       patternUnits="userSpaceOnUse"
       id="EMFhbasepattern" />
  </defs>
  <path
     transform="matrix(0.28222222,0,0,0.28222222,-135.35014,-93.861379)"
     id="path4188"
     d="m 0.824957,0.824957 1150.295043,0 0,899.953043 -1150.295043,0 z"
     clip-path="url(#clipEmfPath1)"
     style="fill:none;stroke:#868686;stroke-width:0.9374513px;stroke-linecap:butt;stroke-linejoin:round;stroke-miterlimit:4;stroke-dasharray:none;stroke-opacity:1" />
  <path
     id="path4190"
     d="m 26.545232,33.904576 c 0,-4.86806 0.46566,-12.94272 8.67805,-21.20788 5.47116,-5.5030495 12.67798,-7.1856545 16.09626,-3.7357695 3.41828,3.4394395 1.75683,10.6993295 -3.71461,16.2128195 -8.2121,8.26516 -16.21282,8.73083 -21.0597,8.73083 -4.83616,0 -12.84732,-0.46567 -21.0489802,-8.73083 -5.47145002,-5.51349 -7.14361,-12.77338 -3.71461,-16.2128195 3.41827,-3.449885 10.6251002,-1.76728 16.0962602,3.7357695 8.21238,8.26516 8.66733,16.33982 8.66733,21.20788 0,3.40755 -0.3175,9.04832 -6.06383,14.83698 -3.83088,3.86278 -8.87899,5.02694 -11.2708302,2.62467 -2.39155,-2.413 -1.22738,-7.49272 2.6035002,-11.35549 5.74633,-5.77822 11.35521,-6.10616 14.73116,-6.10616 3.38666,0 8.99555,0.32794 14.74187,6.10616 3.83089,3.86277 4.99506,8.94249 2.6035,11.35549 -2.39183,2.40227 -7.43994,1.23811 -11.27082,-2.62467 -5.74633,-5.78866 -6.07455,-11.42943 -6.07455,-14.83698 z"
     style="fill:#ffd700;fill-opacity:1;fill-rule:evenodd;stroke:none" />
  <path
     id="path4192"
     d="m 26.545232,33.904576 c 0,-4.39195 0.42333,-11.65155 7.79949,-19.08077 4.92111,-4.9634395 11.40827,-6.4767095 14.48788,-3.37594 3.06916,3.10078 1.57677,9.64099 -3.34405,14.59371 -7.38689,7.43966 -14.58327,7.863 -18.94332,7.863 -4.34933,0 -11.54571,-0.42334 -18.9326002,-7.863 -4.92083,-4.95272 -6.42366,-11.49293 -3.34405,-14.59371 3.07961,-3.1007695 9.5667702,-1.5874995 14.4878802,3.37594 7.37616,7.42922 7.78877,14.68882 7.78877,19.08077 0,3.06888 -0.28561,8.1486 -5.45,13.3556 -3.45016,3.47105 -7.98999,4.51866 -10.13827,2.34922 -2.1590002,-2.16945 -1.1113902,-6.74116 2.33878,-10.2125 5.16438,-5.20672 10.21221,-5.49232 13.24949,-5.49232 3.048,0 8.09582,0.2856 13.26021,5.49232 3.45016,3.47134 4.49777,8.04305 2.33877,10.2125 -2.14827,2.16944 -6.6881,1.12183 -10.13827,-2.34922 -5.16438,-5.207 -5.46071,-10.28672 -5.46071,-13.3556 z"
     style="fill:#00ff00;fill-opacity:1;fill-rule:evenodd;stroke:none" />
  <path
     id="path4194"
     d="m 26.566392,33.893846 c 0,-3.89438 0.37056,-10.34993 6.94239,-16.95337 4.37077,-4.41311 10.13827,-5.75705 12.86877,-2.99494 2.73021,2.75138 1.40744,8.56149 -2.97378,12.96388 -6.56138,6.61416 -12.96416,6.98443 -16.83738,6.98443 -3.86277,0 -10.26527,-0.37027 -16.8266502,-6.98443 -4.38122,-4.40239 -5.71472,-10.2125 -2.97378,-12.96388 2.7305,-2.76211 8.4980002,-1.41817 12.8687702,2.99494 6.57183,6.60344 6.93166,13.05899 6.93166,16.95337 0,2.7305 -0.254,7.24944 -4.84688,11.87394 -3.05844,3.09033 -7.10099,4.02166 -9.01644,2.0955 -1.91544,-1.92617 -0.98439,-5.98989 2.08478,-9.07994 4.59288,-4.62477 9.07993,-4.8895 11.77854,-4.8895 2.70934,0 7.19639,0.26473 11.78927,4.8895 3.05844,3.09005 3.98978,7.15377 2.08478,9.07994 -1.91544,1.92616 -5.958,0.99483 -9.01644,-2.0955 -4.59288,-4.6245 -4.85761,-9.14344 -4.85761,-11.87394 z"
     style="fill:#ffff00;fill-opacity:1;fill-rule:evenodd;stroke:none" />
  <path
     id="path4196"
     d="m 26.545232,33.893846 c 0,-3.40755 0.32822,-9.05877 6.07455,-14.83699 3.83088,-3.86277 8.86827,-5.03738 11.2601,-2.62438 2.39183,2.41272 1.22767,7.49244 -2.59278,11.35521 -5.74632,5.77822 -11.35521,6.10616 -14.74187,6.10616 -3.37595,0 -8.98483,-0.32794 -14.73116,-6.10616 -3.8308802,-3.86277 -4.9950502,-8.94249 -2.5927702,-11.35521 2.3915502,-2.413 7.4292202,-1.23839 11.2601002,2.62438 5.74633,5.77822 6.06383,11.42944 6.06383,14.83699 0,2.39183 -0.22211,6.33928 -4.24378,10.39255 -2.67744,2.69861 -6.21199,3.51339 -7.88416,1.83078 -1.67188,-1.68261 -0.85711,-5.24905 1.82033,-7.94766 4.02139,-4.04284 7.94766,-4.27567 10.30761,-4.27567 2.37066,0 6.29694,0.23283 10.31832,4.27567 2.67745,2.69861 3.49222,6.26505 1.82005,7.94766 -1.67188,1.68261 -5.20671,0.86783 -7.88416,-1.83078 -4.02138,-4.05327 -4.25421,-8.00072 -4.25421,-10.39255 z"
     style="fill:#ff00ff;fill-opacity:1;fill-rule:evenodd;stroke:none" />
  <path
     id="path4198"
     d="m 26.566392,33.893846 c 0,-2.92072 0.28589,-7.7676 5.20672,-12.72032 3.28083,-3.31244 7.60899,-4.31772 9.66216,-2.24367 2.04244,2.06361 1.04761,6.42395 -2.23294,9.72566 -4.92111,4.96345 -9.72566,5.23833 -12.63594,5.23833 -2.89955,0 -7.7041,-0.27488 -12.62521,-5.23833 -3.28055,-3.30171 -4.2861102,-7.66205 -2.23294,-9.72566 2.05317,-2.07405 6.38133,-1.06877 9.66216,2.24367 4.92083,4.95272 5.19599,9.7996 5.19599,12.72032 0,2.04273 -0.1905,5.42911 -3.64038,8.90016 -2.29644,2.31761 -5.32328,3.01611 -6.75189,1.57706 -1.43933,-1.45006 -0.74083,-4.49778 1.55561,-6.81539 3.45017,-3.47133 6.81539,-3.66183 8.83666,-3.66183 2.032,0 5.39722,0.1905 8.84739,3.66183 2.29644,2.31761 2.99494,5.36533 1.55561,6.81539 -1.42861,1.43905 -4.45545,0.74055 -6.76233,-1.57706 -3.43944,-3.47105 -3.64067,-6.85743 -3.64067,-8.90016 z"
     style="fill:#0000ff;fill-opacity:1;fill-rule:evenodd;stroke:none" />
  <path
     id="path4200"
     d="m 26.545232,33.893846 c 0,-2.43388 0.23283,-6.47643 4.33888,-10.60393 2.74094,-2.75139 6.33928,-3.59806 8.05349,-1.87311 1.70406,1.72494 0.87856,5.35488 -1.86238,8.10655 -4.10605,4.13794 -8.10655,4.37049 -10.52999,4.37049 -2.41272,0 -6.42366,-0.23255 -10.51927,-4.37049 -2.74094,-2.75167 -3.57689,-6.38161 -1.86267,-8.10655 1.7145,-1.72495 5.31283,-0.87828 8.05378,1.87311 4.10605,4.1275 4.32816,8.17005 4.32816,10.60393 0,1.70406 -0.15861,4.51894 -3.02655,7.41878 -1.91545,1.92588 -4.44472,2.50811 -5.64078,1.31205 -1.19578,-1.20622 -0.61383,-3.74622 1.30189,-5.68283 2.87839,-2.88911 5.67239,-3.048 7.36544,-3.048 1.69333,0 4.49777,0.15889 7.37616,3.048 1.91544,1.93661 2.49766,4.47661 1.30189,5.68283 -1.19606,1.19606 -3.72534,0.61383 -5.64078,-1.31205 -2.86794,-2.89984 -3.03727,-5.71472 -3.03727,-7.41878 z"
     style="fill:#ff0000;fill-opacity:1;fill-rule:evenodd;stroke:none" />
  <path
     id="path4202"
     d="M 26.550592,33.872676 C 26.164232,15.389946 30.752032,0.30432346 36.789332,0.17732346"
     style="fill:none;stroke:#000000;stroke-width:0.35452324px;stroke-linecap:round;stroke-linejoin:round;stroke-miterlimit:4;stroke-dasharray:none;stroke-opacity:1" />
  <path
     id="path4204"
     d="m 26.545232,33.872676 c 0.381,-18.48273 -4.20145,-33.56835254 -10.24411,-33.69535254"
     style="fill:none;stroke:#000000;stroke-width:0.35452324px;stroke-linecap:round;stroke-linejoin:round;stroke-miterlimit:4;stroke-dasharray:none;stroke-opacity:1" />
</svg>
