<?xml version="1.0" encoding="UTF-8" standalone="no"?>
<svg
   xmlns:dc="http://purl.org/dc/elements/1.1/"
   xmlns:cc="http://creativecommons.org/ns#"
   xmlns:rdf="http://www.w3.org/1999/02/22-rdf-syntax-ns#"
   xmlns:svg="http://www.w3.org/2000/svg"
   xmlns="http://www.w3.org/2000/svg"
   viewBox="0 0 77.777406 77.171775"
   id="svg5553"
   height="77.171776mm"
   width="77.777405mm"
   version="1.0">
  <metadata
     id="metadata5589">
    <rdf:RDF>
      <cc:Work
         rdf:about="">
        <dc:format>image/svg+xml</dc:format>
        <dc:type
           rdf:resource="http://purl.org/dc/dcmitype/StillImage" />
        <dc:title></dc:title>
      </cc:Work>
    </rdf:RDF>
  </metadata>
  <defs
     id="defs5555">
    <clipPath
       id="clipEmfPath1"
       clipPathUnits="userSpaceOnUse">
      <path
         id="path5558"
         d="m 0.449977,0.449977 1165.740023,0 0,900.853023 -1165.740023,0 z" />
    </clipPath>
    <pattern
       y="0"
       x="0"
       height="6"
       width="6"
       patternUnits="userSpaceOnUse"
       id="EMFhbasepattern" />
    <clipPath
       clipPathUnits="userSpaceOnUse"
       id="clipEmfPath1-7">
      <path
         d="m 0.449977,0.449977 1165.740023,0 0,900.853023 -1165.740023,0 z"
         id="path6136" />
    </clipPath>
    <pattern
       id="EMFhbasepattern-4"
       patternUnits="userSpaceOnUse"
       width="6"
       height="6"
       x="0"
       y="0" />
    <clipPath
       clipPathUnits="userSpaceOnUse"
       id="clipEmfPath1-72">
      <path
         d="m 0.449977,0.449977 1165.740023,0 0,900.853023 -1165.740023,0 z"
         id="path6169" />
    </clipPath>
    <pattern
       id="EMFhbasepattern-1"
       patternUnits="userSpaceOnUse"
       width="6"
       height="6"
       x="0"
       y="0" />
  </defs>
  <path
     transform="matrix(0.28222222,0,0,0.28222222,-301.10775,124.64496)"
     id="path5563"
     d="m 0.824957,0.824957 1164.835043,0 0,899.953043 -1164.835043,0 z"
     clip-path="url(#clipEmfPath1)"
     style="fill:none;stroke:#868686;stroke-width:0.9374513px;stroke-linecap:butt;stroke-linejoin:round;stroke-miterlimit:4;stroke-dasharray:none;stroke-opacity:1" />
  <path
     transform="matrix(0.28222222,0,0,0.28222222,-372.93187,-77.449825)"
     id="path6141"
     d="m 0.824957,0.824957 1164.835043,0 0,899.953043 -1164.835043,0 z"
     clip-path="url(#clipEmfPath1-7)"
     style="fill:none;stroke:#868686;stroke-width:0.9374513px;stroke-linecap:butt;stroke-linejoin:round;stroke-miterlimit:4;stroke-dasharray:none;stroke-opacity:1" />
  <path
     transform="matrix(0.28222222,0,0,0.28222222,-127.13702,-89.172466)"
     id="path6174"
     d="m 0.824957,0.824957 1164.835043,0 0,899.953043 -1164.835043,0 z"
     clip-path="url(#clipEmfPath1-72)"
     style="fill:none;stroke:#868686;stroke-width:0.9374513px;stroke-linecap:butt;stroke-linejoin:round;stroke-miterlimit:4;stroke-dasharray:none;stroke-opacity:1" />
  <path
     id="path6176"
     d="m 38.896289,38.582764 c 2.10594,-2.88883 7.02705,-2.91 10.98493,-0.0423 3.96861,2.8575 5.47116,7.52461 3.35478,10.41372 3.57688,0.37028 6.05338,4.60333 5.54538,9.45021 -0.508,4.83645 -3.82044,8.46639 -7.38688,8.09583 1.4605,3.25967 -0.98411,7.51388 -5.46072,9.49283 -4.46588,1.97894 -9.28116,0.94177 -10.74138,-2.31761 -2.10594,2.88911 -7.02705,2.91027 -10.99566,0.0531 -3.95788,-2.86795 -5.46071,-7.52461 -3.35477,-10.41372 -3.56644,-0.38072 -6.05339,-4.60333 -5.53466,-9.45021 0.508,-4.84689 3.82044,-8.46639 7.3866,-8.09583 -1.46022,-3.27011 0.98439,-7.51388 5.45028,-9.50355 4.47661,-1.97894 9.28116,-0.94178 10.7521,2.31761 3.40755,-1.10039 7.40805,1.75683 8.92133,6.39205 1.51327,4.63522 -0.0319,9.28116 -3.43945,10.39227 2.66672,2.38111 2.16945,7.25988 -1.10066,10.8791 -3.28055,3.6195 -8.09583,4.61433 -10.76255,2.23294 -0.75156,3.4925 -5.23861,5.50305 -10.02199,4.48734 -4.79411,-1.00556 -8.07466,-4.65639 -7.32339,-8.15933 -3.41827,1.11111 -7.4077595,-1.74639 -8.9213195,-6.38161 -1.51328,-4.63522 0.0212,-9.28088 3.43944,-10.39227 -2.66672,-2.39155 -2.17988,-7.2596 1.1006695,-10.8791 3.27011,-3.61922 8.08538,-4.61405 10.76282,-2.23294 0.74055,-3.49222 5.22789,-5.50305 10.02171,-4.48705 4.78339,1.00527 8.06422,4.65638 7.32339,8.1486 3.40755,1.11139 4.95272,5.75705 3.43944,10.39255 -1.51327,4.63522 -5.50305,7.49243 -8.92133,6.39177 0.75128,3.4925 -2.52927,7.14361 -7.31266,8.15932 -4.7941,1.016 -9.28116,-0.99455 -10.03243,-4.48705 -2.667,2.39184 -7.4819895,1.397 -10.7628295,-2.22221 -3.27011,-3.6195 -3.76738,-8.498 -1.10066,-10.88983 -3.41828001,-1.10067 -4.96316001,-5.74633 -3.44989001,-10.38155 1.51328001,-4.6355 5.51349001,-7.49271 8.92133001,-6.39205 -0.74084,-3.4925 2.5292695,-7.14332 7.3230995,-8.15932 4.78367,-1.016 9.27072,0.99483 10.02199,4.48705 2.667,-2.39184 7.49272,-1.397 10.76283,2.22222 3.28055,3.6195 3.77783,8.49799 1.10038,10.8791 2.11667,2.89983 0.61384,7.55622 -3.34405,10.42416 -3.95788,2.86794 -8.87899,2.84677 -10.99537,-0.0423 -1.4605,3.25939 -6.26506,4.29656 -10.74166,2.31761 -4.4766095,-1.97894 -6.9104995,-6.23316 -5.4607195,-9.49282 -3.56644,0.37055 -6.87889,-3.24895 -7.38689001,-8.09583 -0.51844,-4.84688 1.96850001,-9.06921 5.53495001,-9.45021 -2.11667,-2.88911 -0.61384,-7.55622 3.34405,-10.41344 3.9686095,-2.86794 8.8897095,-2.84677 10.9956595,0.0423 1.46021,-3.25967 6.27549,-4.3072786 10.74137,-2.31789 4.47661,1.97922 6.92122,6.22271 5.46072,9.49282 3.56644,-0.381 6.87889,3.24894 7.39733,8.09583 0.508,4.83644 -1.96822,9.06949 -5.54539,9.43977 0.0107,3.57716 -3.95788,6.47672 -8.85754,6.47672 -4.89994,0 -8.86855,-2.89956 -8.86855,-6.466 -3.11122,1.78844 -7.61944,-0.1905 -10.06405,-4.40238 -2.4445995,-4.22261 -1.9157195,-9.09066 1.19578,-10.8791 -3.1114995,-1.778 -3.6511095,-6.64606 -1.19578,-10.86866 2.44461,-4.2223306 6.94211,-6.1908306 10.05361,-4.4023886 0,-3.576885 3.96832,-6.476718 8.86827,-6.476718 4.89994,0 8.86826,2.899833 8.86826,6.466276 3.1115,-1.778 7.60928,0.1905 10.06433,4.4023806 2.44461,4.22261 1.91544,9.09066 -1.19577,10.87911 3.11121,1.77771 3.6511,6.64605 1.19577,10.86837 -2.44461,4.22261 -6.95283,6.19111 -10.06433,4.40239 -2.10594,2.89983 -7.02676,2.921 -10.98493,0.0531 -3.96833,-2.85722 -5.47116,-7.52433 -3.35449,-10.41344 -3.57717,-0.37056 -6.05339,-4.60361 -5.54539,-9.45049 0.508,-4.83616 3.82016,-8.466106 7.39733,-8.09583 -1.47094,-3.2593846 0.97366,-7.5136016 5.44999,-9.4928266 4.46589,-1.98938401 9.28116,-0.94177501 10.74166,2.317609 2.10594,-2.88910901 7.02677,-2.91027601 10.99538,-0.05278 3.95817,2.867943 5.46072,7.5243276 3.35477,10.4134376 3.56645,0.381 6.05339,4.60361 5.53495,9.4505 -0.508,4.84688 -3.82045,8.4661 -7.38689,8.09582 1.4605,3.25939 -0.98411,7.5136 -5.45027,9.50327 -4.47633,1.97894 -9.28088,0.94178 -10.75211,-2.32833 -3.40755,1.11139 -7.40776,-1.74611 -8.92104,-6.38133 -1.51356,-4.63522 0.0316,-9.28116 3.43916,-10.39227 -2.66672,-2.39155 -2.16944,-7.25988 1.10067,-10.8791 3.28083,-3.6192216 8.09582,-4.6247796 10.76282,-2.2329456 0.75128,-3.492218 5.23833,-5.503052 10.02171,-4.487052 4.79411,1.005276 8.07466,4.656385 7.32339,8.1486076 3.41827,-1.10039 7.40805,1.75683 8.92133,6.39205 1.51327,4.63522 -0.0212,9.28116 -3.43945,10.39227 2.667,2.38111 2.18017,7.25988 -1.10066,10.8791 -3.27011,3.6195 -8.08511,4.61405 -10.76255,2.23294 -0.74083,3.4925 -5.22788,5.50305 -10.02199,4.48705 -4.78339,-1.00527 -8.06394,-4.65638 -7.32339,-8.15932 -3.40755,-1.10039 -4.95271,-5.74633 -3.43916,-10.38155 1.51328,-4.63521 5.50306,-7.49271 8.92105,-6.39205 -0.75128,-3.49222 2.52927,-7.14332 7.31294,-8.15932 4.79383,-1.016 9.28088,0.99483 10.03244,4.48705 2.66671,-2.39155 7.48199,-1.39672 10.76254,2.2225 3.27011,3.61921 3.76767,8.49799 1.10067,10.88954 3.41827,1.10067 4.95272,5.74661 3.44988,10.38183 -1.51327,4.63522 -5.51349,7.49272 -8.92104,6.39205 0.74055,3.49222 -2.52928,7.14333 -7.32339,8.15933 -4.78338,1.016 -9.28116,-0.99484 -10.02199,-4.48706 -2.66672,2.39156 -7.49244,1.39672 -10.76254,-2.2225 -3.28084,-3.61921 -3.77811,-8.49799 -1.1114,-10.88982 -2.10594,-2.88883 -0.6031,-7.5455 3.35478,-10.41344 3.95817,-2.86794 8.87899,-2.84677 10.99566,0.0423 1.4605,-3.25939 6.26505,-4.29656 10.74138,-2.31761 4.46616,1.97894 6.91077,6.23344 5.45027,9.49282 3.57689,-0.37027 6.88933,3.24895 7.39733,8.09583 0.51844,4.84688 -1.9685,9.06949 -5.53494,9.45049 2.10622,2.88911 0.61383,7.5455 -3.34405,10.41344 -3.96861,2.86794 -8.88944,2.84677 -10.99538,-0.0423 -1.4605,3.25938 -6.27578,4.29655 -10.74166,2.3176 -4.47661,-1.97894 -6.92122,-6.23316 -5.46072,-9.49282 -3.56644,0.37056 -6.87888,-3.24894 -7.39733,-8.09583 -0.508,-4.83616 1.9685,-9.06949 5.53466,-9.45049 0,-3.56616 3.96861,-6.466 8.86856,-6.466 4.89966,0 8.86826,2.88911 8.86826,6.466 3.1115,-1.78844 7.609,0.18006 10.06433,4.40266 2.44461,4.22233 1.91544,9.09066 -1.19577,10.86838 3.11121,1.78844 3.65082,6.6565 1.19577,10.8791 -2.44461,4.21189 -6.95283,6.19111 -10.0536,4.40239 0,3.57717 -3.96861,6.46627 -8.86855,6.46627 -4.89966,0.0104 -8.86827,-2.8891 -8.86827,-6.46627 -3.11122,1.78872 -7.60899,-0.17978 -10.06433,-4.39166 -2.44461,-4.22261 -1.91544,-9.09066 1.19606,-10.8791 -3.1115,-1.78845 -3.65111,-6.65678 -1.19606,-10.86866 2.44461,-4.22261 6.95311,-6.19083 10.0536,-4.41311 z"
     style="fill:#ffcc00;fill-opacity:1;fill-rule:evenodd;stroke:none" />
  <path
     id="path6178"
     d="m 38.896289,38.582764 c 2.10594,-2.88883 7.02705,-2.91 10.98493,-0.0423 3.96861,2.8575 5.47116,7.52461 3.35478,10.41372 3.57688,0.37028 6.05338,4.60333 5.54538,9.45021 -0.508,4.83645 -3.82044,8.46639 -7.38688,8.09583 1.4605,3.25967 -0.98411,7.51388 -5.46072,9.49283 -4.46588,1.97894 -9.28116,0.94177 -10.74138,-2.31761 -2.10594,2.88911 -7.02705,2.91027 -10.99566,0.0531 -3.95788,-2.86795 -5.46071,-7.52461 -3.35477,-10.41372 -3.56644,-0.38072 -6.05339,-4.60333 -5.53466,-9.45021 0.508,-4.84689 3.82044,-8.46639 7.3866,-8.09583 -1.46022,-3.27011 0.98439,-7.51388 5.45028,-9.50355 4.47661,-1.97894 9.28116,-0.94178 10.7521,2.31761 3.40755,-1.10039 7.40805,1.75683 8.92133,6.39205 1.51327,4.63522 -0.0319,9.28116 -3.43945,10.39227 2.66672,2.38111 2.16945,7.25988 -1.10066,10.8791 -3.28055,3.6195 -8.09583,4.61433 -10.76255,2.23294 -0.75156,3.4925 -5.23861,5.50305 -10.02199,4.48734 -4.79411,-1.00556 -8.07466,-4.65639 -7.32339,-8.15933 -3.41827,1.11111 -7.4077595,-1.74639 -8.9213195,-6.38161 -1.51328,-4.63522 0.0212,-9.28088 3.43944,-10.39227 -2.66672,-2.39155 -2.17988,-7.2596 1.1006695,-10.8791 3.27011,-3.61922 8.08538,-4.61405 10.76282,-2.23294 0.74055,-3.49222 5.22789,-5.50305 10.02171,-4.48705 4.78339,1.00527 8.06422,4.65638 7.32339,8.1486 3.40755,1.11139 4.95272,5.75705 3.43944,10.39255 -1.51327,4.63522 -5.50305,7.49243 -8.92133,6.39177 0.75128,3.4925 -2.52927,7.14361 -7.31266,8.15932 -4.7941,1.016 -9.28116,-0.99455 -10.03243,-4.48705 -2.667,2.39184 -7.4819895,1.397 -10.7628295,-2.22221 -3.27011,-3.6195 -3.76738,-8.498 -1.10066,-10.88983 -3.41828001,-1.10067 -4.96316001,-5.74633 -3.44989001,-10.38155 1.51328001,-4.6355 5.51349001,-7.49271 8.92133001,-6.39205 -0.74084,-3.4925 2.5292695,-7.14332 7.3230995,-8.15932 4.78367,-1.016 9.27072,0.99483 10.02199,4.48705 2.667,-2.39184 7.49272,-1.397 10.76283,2.22222 3.28055,3.6195 3.77783,8.49799 1.10038,10.8791 2.11667,2.89983 0.61384,7.55622 -3.34405,10.42416 -3.95788,2.86794 -8.87899,2.84677 -10.99537,-0.0423 -1.4605,3.25939 -6.26506,4.29656 -10.74166,2.31761 -4.4766095,-1.97894 -6.9104995,-6.23316 -5.4607195,-9.49282 -3.56644,0.37055 -6.87889,-3.24895 -7.38689001,-8.09583 -0.51844,-4.84688 1.96850001,-9.06921 5.53495001,-9.45021 -2.11667,-2.88911 -0.61384,-7.55622 3.34405,-10.41344 3.9686095,-2.86794 8.8897095,-2.84677 10.9956595,0.0423 1.46021,-3.25967 6.27549,-4.3072786 10.74137,-2.31789 4.47661,1.97922 6.92122,6.22271 5.46072,9.49282 3.56644,-0.381 6.87889,3.24894 7.39733,8.09583 0.508,4.83644 -1.96822,9.06949 -5.54539,9.43977 0.0107,3.57716 -3.95788,6.47672 -8.85754,6.47672 -4.89994,0 -8.86855,-2.89956 -8.86855,-6.466 -3.11122,1.78844 -7.61944,-0.1905 -10.06405,-4.40238 -2.4445995,-4.22261 -1.9157195,-9.09066 1.19578,-10.8791 -3.1114995,-1.778 -3.6511095,-6.64606 -1.19578,-10.86866 2.44461,-4.2223306 6.94211,-6.1908306 10.05361,-4.4023886 0,-3.576885 3.96832,-6.476718 8.86827,-6.476718 4.89994,0 8.86826,2.899833 8.86826,6.466276 3.1115,-1.778 7.60928,0.1905 10.06433,4.4023806 2.44461,4.22261 1.91544,9.09066 -1.19577,10.87911 3.11121,1.77771 3.6511,6.64605 1.19577,10.86837 -2.44461,4.22261 -6.95283,6.19111 -10.06433,4.40239 -2.10594,2.89983 -7.02676,2.921 -10.98493,0.0531 -3.96833,-2.85722 -5.47116,-7.52433 -3.35449,-10.41344 -3.57717,-0.37056 -6.05339,-4.60361 -5.54539,-9.45049 0.508,-4.83616 3.82016,-8.466106 7.39733,-8.09583 -1.47094,-3.2593846 0.97366,-7.5136016 5.44999,-9.4928266 4.46589,-1.98938401 9.28116,-0.94177501 10.74166,2.317609 2.10594,-2.88910901 7.02677,-2.91027601 10.99538,-0.05278 3.95817,2.867943 5.46072,7.5243276 3.35477,10.4134376 3.56645,0.381 6.05339,4.60361 5.53495,9.4505 -0.508,4.84688 -3.82045,8.4661 -7.38689,8.09582 1.4605,3.25939 -0.98411,7.5136 -5.45027,9.50327 -4.47633,1.97894 -9.28088,0.94178 -10.75211,-2.32833 -3.40755,1.11139 -7.40776,-1.74611 -8.92104,-6.38133 -1.51356,-4.63522 0.0316,-9.28116 3.43916,-10.39227 -2.66672,-2.39155 -2.16944,-7.25988 1.10067,-10.8791 3.28083,-3.6192216 8.09582,-4.6247796 10.76282,-2.2329456 0.75128,-3.492218 5.23833,-5.503052 10.02171,-4.487052 4.79411,1.005276 8.07466,4.656385 7.32339,8.1486076 3.41827,-1.10039 7.40805,1.75683 8.92133,6.39205 1.51327,4.63522 -0.0212,9.28116 -3.43945,10.39227 2.667,2.38111 2.18017,7.25988 -1.10066,10.8791 -3.27011,3.6195 -8.08511,4.61405 -10.76255,2.23294 -0.74083,3.4925 -5.22788,5.50305 -10.02199,4.48705 -4.78339,-1.00527 -8.06394,-4.65638 -7.32339,-8.15932 -3.40755,-1.10039 -4.95271,-5.74633 -3.43916,-10.38155 1.51328,-4.63521 5.50306,-7.49271 8.92105,-6.39205 -0.75128,-3.49222 2.52927,-7.14332 7.31294,-8.15932 4.79383,-1.016 9.28088,0.99483 10.03244,4.48705 2.66671,-2.39155 7.48199,-1.39672 10.76254,2.2225 3.27011,3.61921 3.76767,8.49799 1.10067,10.88954 3.41827,1.10067 4.95272,5.74661 3.44988,10.38183 -1.51327,4.63522 -5.51349,7.49272 -8.92104,6.39205 0.74055,3.49222 -2.52928,7.14333 -7.32339,8.15933 -4.78338,1.016 -9.28116,-0.99484 -10.02199,-4.48706 -2.66672,2.39156 -7.49244,1.39672 -10.76254,-2.2225 -3.28084,-3.61921 -3.77811,-8.49799 -1.1114,-10.88982 -2.10594,-2.88883 -0.6031,-7.5455 3.35478,-10.41344 3.95817,-2.86794 8.87899,-2.84677 10.99566,0.0423 1.4605,-3.25939 6.26505,-4.29656 10.74138,-2.31761 4.46616,1.97894 6.91077,6.23344 5.45027,9.49282 3.57689,-0.37027 6.88933,3.24895 7.39733,8.09583 0.51844,4.84688 -1.9685,9.06949 -5.53494,9.45049 2.10622,2.88911 0.61383,7.5455 -3.34405,10.41344 -3.96861,2.86794 -8.88944,2.84677 -10.99538,-0.0423 -1.4605,3.25938 -6.27578,4.29655 -10.74166,2.3176 -4.47661,-1.97894 -6.92122,-6.23316 -5.46072,-9.49282 -3.56644,0.37056 -6.87888,-3.24894 -7.39733,-8.09583 -0.508,-4.83616 1.9685,-9.06949 5.53466,-9.45049 0,-3.56616 3.96861,-6.466 8.86856,-6.466 4.89966,0 8.86826,2.88911 8.86826,6.466 3.1115,-1.78844 7.609,0.18006 10.06433,4.40266 2.44461,4.22233 1.91544,9.09066 -1.19577,10.86838 3.11121,1.78844 3.65082,6.6565 1.19577,10.8791 -2.44461,4.21189 -6.95283,6.19111 -10.0536,4.40239 0,3.57717 -3.96861,6.46627 -8.86855,6.46627 -4.89966,0.0104 -8.86827,-2.8891 -8.86827,-6.46627 -3.11122,1.78872 -7.60899,-0.17978 -10.06433,-4.39166 -2.44461,-4.22261 -1.91544,-9.09066 1.19606,-10.8791 -3.1115,-1.78845 -3.65111,-6.65678 -1.19606,-10.86866 2.44461,-4.22261 6.95311,-6.19083 10.0536,-4.41311"
     style="fill:none;stroke:#000000;stroke-width:0.34923184px;stroke-linecap:butt;stroke-linejoin:round;stroke-miterlimit:4;stroke-dasharray:none;stroke-opacity:1" />
</svg>
