<?xml version="1.0" encoding="UTF-8" standalone="no"?>
<!-- Created with Inkscape (http://www.inkscape.org/) -->

<svg
   xmlns:dc="http://purl.org/dc/elements/1.1/"
   xmlns:cc="http://creativecommons.org/ns#"
   xmlns:rdf="http://www.w3.org/1999/02/22-rdf-syntax-ns#"
   xmlns:svg="http://www.w3.org/2000/svg"
   xmlns="http://www.w3.org/2000/svg"
   xmlns:sodipodi="http://sodipodi.sourceforge.net/DTD/sodipodi-0.dtd"
   xmlns:inkscape="http://www.inkscape.org/namespaces/inkscape"
   width="141.13199mm"
   height="141.08994mm"
   viewBox="0 0 500.07398 499.92497"
   id="svg2"
   version="1.1"
   inkscape:version="0.91 r13725"
   sodipodi:docname="turtle-graphics-pookkalam.svg">
  <defs
     id="defs4">
    <clipPath
       id="clipEmfPath1"
       clipPathUnits="userSpaceOnUse">
      <path
         inkscape:connector-curvature="0"
         id="path4141"
         d="m 0.449977,0.449977 1159.590023,0 0,900.853023 -1159.590023,0 z" />
    </clipPath>
    <pattern
       y="0"
       x="0"
       height="6"
       width="6"
       patternUnits="userSpaceOnUse"
       id="EMFhbasepattern" />
  </defs>
  <sodipodi:namedview
     id="base"
     pagecolor="#ffffff"
     bordercolor="#666666"
     borderopacity="1.0"
     inkscape:pageopacity="0.0"
     inkscape:pageshadow="2"
     inkscape:zoom="0.35"
     inkscape:cx="-242.50794"
     inkscape:cy="208.93348"
     inkscape:document-units="px"
     inkscape:current-layer="layer1"
     showgrid="false"
     fit-margin-top="0"
     fit-margin-left="0"
     fit-margin-right="0"
     fit-margin-bottom="0"
     inkscape:window-width="1920"
     inkscape:window-height="1017"
     inkscape:window-x="1912"
     inkscape:window-y="-8"
     inkscape:window-maximized="1" />
  <metadata
     id="metadata7">
    <rdf:RDF>
      <cc:Work
         rdf:about="">
        <dc:format>image/svg+xml</dc:format>
        <dc:type
           rdf:resource="http://purl.org/dc/dcmitype/StillImage" />
        <dc:title></dc:title>
      </cc:Work>
    </rdf:RDF>
  </metadata>
  <g
     inkscape:label="Layer 1"
     inkscape:groupmode="layer"
     id="layer1"
     transform="translate(-94.650793,-241.37073)">
    <path
       style="fill:#871000;fill-opacity:1;fill-rule:evenodd;stroke:none"
       d="m 594.72479,491.33271 -14.512,31.01099 6.00002,33.71102 -22.04901,26.17398 -2.925,34.08502 -28.08602,19.61199 -11.66198,32.17297 -32.17302,11.66202 -19.61199,28.04899 -34.08499,2.925 -26.212,22.04802 -33.71,-5.99903 -31.01102,14.512 -30.974,-14.512 -33.70999,5.99903 -26.21201,-22.04802 -34.123,-2.925 -19.57397,-28.04899 -32.211,-11.66202 -11.62403,-32.17297 -28.08599,-19.61199 -2.925,-34.08502 -22.049,-26.17398 6,-33.71102 -14.548997,-31.01099 14.548997,-30.973 -6,-33.71099 22.049,-26.17299 2.925,-34.12401 28.08599,-19.574 11.62403,-32.17299 32.211,-11.662 19.57397,-28.048 34.123,-2.925 26.21201,-22.049 33.70999,6 30.974,-14.55 31.01102,14.55 33.71,-6 26.212,22.049 34.08499,2.925 19.61199,28.048 32.17302,11.662 11.66198,32.17299 28.08602,19.574 2.925,34.12401 22.04901,26.17299 -6.00002,33.71099 z"
       id="path4148"
       inkscape:connector-curvature="0" />
    <path
       style="fill:#ec1c00;fill-opacity:1;fill-rule:evenodd;stroke:none"
       d="m 119.77378,491.33271 c 0,-124.23099 100.75801,-224.98798 224.98901,-224.98798 124.268,0 224.98799,100.75699 224.98799,224.98798 0,124.26898 -100.71999,224.989 -224.98799,224.989 -124.231,0 -224.98901,-100.72002 -224.98901,-224.989 z"
       id="path4150"
       inkscape:connector-curvature="0" />
    <path
       style="fill:none;stroke:#fa8a31;stroke-width:3.74980497px;stroke-linecap:round;stroke-linejoin:round;stroke-miterlimit:4;stroke-dasharray:none;stroke-opacity:1"
       d="m 119.77378,491.33271 c 0,-124.23099 100.75801,-224.98798 224.98901,-224.98798 124.268,0 224.98799,100.75699 224.98799,224.98798 0,124.26898 -100.71999,224.989 -224.98799,224.989 -124.231,0 -224.98901,-100.72002 -224.98901,-224.989"
       id="path4152"
       inkscape:connector-curvature="0" />
    <path
       style="fill:#f15d00;fill-opacity:1;fill-rule:evenodd;stroke:none"
       d="m 544.62679,491.33271 -11.58701,24.82398 4.80001,26.96102 -17.66101,20.96199 -2.32498,27.261 -22.46201,15.674 -9.29899,25.76101 -25.76101,9.337 -15.67399,22.46099 -27.262,2.32501 -20.961,17.662 -26.92399,-4.837 -24.82303,11.62399 -24.786,-11.62399 -26.96198,4.837 -20.92302,-17.662 -27.29898,-2.32501 -15.637,-22.46099 -25.76102,-9.337 -9.29898,-25.76101 -22.46202,-15.674 -2.32497,-27.261 -17.66101,-20.96199 4.80001,-26.96102 -11.62503,-24.82398 11.62503,-24.786 -4.80001,-26.96098 17.66101,-20.961 2.32497,-27.29901 22.46202,-15.637 9.29898,-25.761 25.76102,-9.337 15.637,-22.46099 27.29898,-2.325 20.92302,-17.661 26.96198,4.837 24.786,-11.662 24.82303,11.662 26.92399,-4.837 20.961,17.661 27.262,2.325 15.67399,22.46099 25.76101,9.337 9.29899,25.761 22.46201,15.637 2.32498,27.29901 17.66101,20.961 -4.80001,26.96098 z"
       id="path4154"
       inkscape:connector-curvature="0" />
    <path
       style="fill:#f5a900;fill-opacity:1;fill-rule:evenodd;stroke:none"
       d="m 169.64678,491.33271 c 0,-96.59398 78.37101,-174.96498 175.041,-174.96498 96.70702,0 175.041,78.371 175.041,174.96498 0,96.63299 -78.33398,174.96597 -175.041,174.96597 -96.66999,0 -175.041,-78.33298 -175.041,-174.96597 z"
       id="path4156"
       inkscape:connector-curvature="0" />
    <path
       style="fill:#f8f100;fill-opacity:1;fill-rule:evenodd;stroke:none"
       d="m 494.6798,491.40772 -7.462,18.787 2.36201,20.061 -12.07403,16.16198 -2.88698,19.98702 -15.86201,12.52399 -7.987,18.56098 -18.56201,7.98803 -12.52399,15.86097 -19.98698,2.88801 -16.16103,12.074 -20.06199,-2.36201 -18.78601,7.46199 -18.74898,-7.46199 -20.062,2.36201 -16.16102,-12.074 -20.02397,-2.88801 -12.48701,-15.86097 -18.562,-7.98803 -7.987,-18.56098 -15.86102,-12.52399 -2.888,-19.98702 -12.074,-16.16198 2.362,-20.061 -7.49898,-18.787 7.49898,-18.74902 -2.362,-20.06099 12.074,-16.16198 2.888,-20.02401 15.86102,-12.48601 7.987,-18.56199 18.562,-7.987 12.48701,-15.862 20.02397,-2.887 16.16102,-12.074 20.062,2.362 18.74898,-7.49999 18.78601,7.49999 20.06199,-2.362 16.16103,12.074 19.98698,2.887 12.52399,15.862 18.56201,7.987 7.987,18.56199 15.86201,12.48601 2.88698,20.02401 12.07403,16.16198 -2.36201,20.06099 z"
       id="path4158"
       inkscape:connector-curvature="0" />
    <path
       style="fill:none;stroke:#884200;stroke-width:3.74980497px;stroke-linecap:round;stroke-linejoin:round;stroke-miterlimit:4;stroke-dasharray:none;stroke-opacity:1"
       d="m 344.76279,491.33271 112.49401,0 56.24699,97.49501 -56.24699,97.49497 -112.49401,0 -56.24699,-97.49497 z"
       id="path4160"
       inkscape:connector-curvature="0" />
    <path
       style="fill:none;stroke:#884200;stroke-width:3.74980497px;stroke-linecap:round;stroke-linejoin:round;stroke-miterlimit:4;stroke-dasharray:none;stroke-opacity:1"
       d="m 344.76279,491.33271 97.49502,56.24801 0,112.49397 -97.49502,56.24702 -97.49501,-56.24702 0,-112.49397 z"
       id="path4162"
       inkscape:connector-curvature="0" />
    <path
       style="fill:none;stroke:#884200;stroke-width:3.74980497px;stroke-linecap:round;stroke-linejoin:round;stroke-miterlimit:4;stroke-dasharray:none;stroke-opacity:1"
       d="m 344.76279,491.33271 56.24699,97.49501 -56.24699,97.49497 -112.49401,0 -56.24699,-97.49497 56.24699,-97.49501 z"
       id="path4164"
       inkscape:connector-curvature="0" />
    <path
       style="fill:none;stroke:#884200;stroke-width:3.74980497px;stroke-linecap:round;stroke-linejoin:round;stroke-miterlimit:4;stroke-dasharray:none;stroke-opacity:1"
       d="m 344.76279,491.33271 0,112.495 -97.42,56.24698 -97.42001,-56.24698 0,-112.495 97.42001,-56.24698 z"
       id="path4166"
       inkscape:connector-curvature="0" />
    <path
       style="fill:none;stroke:#884200;stroke-width:3.74980497px;stroke-linecap:round;stroke-linejoin:round;stroke-miterlimit:4;stroke-dasharray:none;stroke-opacity:1"
       d="m 344.76279,491.40772 -56.24699,97.42 -112.49401,0 -56.24801,-97.42 56.24801,-97.419 112.49401,0 z"
       id="path4168"
       inkscape:connector-curvature="0" />
    <path
       style="fill:none;stroke:#884200;stroke-width:3.74980497px;stroke-linecap:round;stroke-linejoin:round;stroke-miterlimit:4;stroke-dasharray:none;stroke-opacity:1"
       d="m 344.76279,491.33271 -97.42,56.24801 -97.42001,-56.24801 0,-112.49399 97.42001,-56.247 97.42,56.247 z"
       id="path4170"
       inkscape:connector-curvature="0" />
    <path
       style="fill:none;stroke:#884200;stroke-width:3.74980497px;stroke-linecap:round;stroke-linejoin:round;stroke-miterlimit:4;stroke-dasharray:none;stroke-opacity:1"
       d="m 344.76279,491.33271 -112.49401,0 -56.24699,-97.419 56.24699,-97.41998 112.49401,0 56.24699,97.41998 z"
       id="path4172"
       inkscape:connector-curvature="0" />
    <path
       style="fill:none;stroke:#884200;stroke-width:3.74980497px;stroke-linecap:round;stroke-linejoin:round;stroke-miterlimit:4;stroke-dasharray:none;stroke-opacity:1"
       d="m 344.76279,491.33271 -97.49501,-56.24698 0,-112.49401 97.49501,-56.24699 97.49502,56.24699 0,112.49401 z"
       id="path4174"
       inkscape:connector-curvature="0" />
    <path
       style="fill:none;stroke:#884200;stroke-width:3.74980497px;stroke-linecap:round;stroke-linejoin:round;stroke-miterlimit:4;stroke-dasharray:none;stroke-opacity:1"
       d="m 344.76279,491.33271 -56.24699,-97.419 56.24699,-97.41998 112.49401,0 56.24699,97.41998 -56.24699,97.419 z"
       id="path4176"
       inkscape:connector-curvature="0" />
    <path
       style="fill:none;stroke:#884200;stroke-width:3.74980497px;stroke-linecap:round;stroke-linejoin:round;stroke-miterlimit:4;stroke-dasharray:none;stroke-opacity:1"
       d="m 344.76279,491.33271 0,-112.49399 97.42001,-56.247 97.42,56.247 0,112.49399 -97.42,56.24801 z"
       id="path4178"
       inkscape:connector-curvature="0" />
    <path
       style="fill:none;stroke:#884200;stroke-width:3.74980497px;stroke-linecap:round;stroke-linejoin:round;stroke-miterlimit:4;stroke-dasharray:none;stroke-opacity:1"
       d="m 344.76279,491.40772 56.24699,-97.419 112.49401,0 56.24699,97.419 -56.24699,97.42 -112.49401,0 z"
       id="path4180"
       inkscape:connector-curvature="0" />
    <path
       style="fill:none;stroke:#884200;stroke-width:3.74980497px;stroke-linecap:round;stroke-linejoin:round;stroke-miterlimit:4;stroke-dasharray:none;stroke-opacity:1"
       d="m 344.76279,491.33271 97.42001,-56.24698 97.42,56.24698 0,112.495 -97.42,56.24698 -97.42001,-56.24698 z"
       id="path4182"
       inkscape:connector-curvature="0" />
    <path
       style="fill:#ffffff;fill-opacity:1;fill-rule:evenodd;stroke:none"
       d="m 250.94279,491.40772 c 0,-51.74702 41.99701,-93.74502 93.74499,-93.74502 51.78501,0 93.74503,41.998 93.74503,93.74502 0,51.78497 -41.96002,93.74598 -93.74503,93.74598 -51.74798,0 -93.74499,-41.96101 -93.74499,-93.74598 z"
       id="path4184"
       inkscape:connector-curvature="0" />
    <path
       style="fill:#086a00;fill-opacity:1;fill-rule:evenodd;stroke:none"
       d="m 407.98379,491.33271 -4.23698,7.763 2.09997,8.62402 -6.11199,6.37497 -0.225,8.84902 -7.57499,4.613 -2.475,8.51198 -8.51201,2.475 -4.61201,7.57399 -8.84898,0.18815 -6.413,6.11199 -8.58702,-2.09997 -7.799,4.23698 -7.762,-4.23698 -8.587,2.09997 -6.41299,-6.11199 -8.88701,-0.18815 -4.57398,-7.57399 -8.51202,-2.475 -2.475,-8.51198 -7.57498,-4.613 -0.225,-8.84902 -6.112,-6.37497 2.09998,-8.62402 -4.275,-7.763 4.275,-7.762 -2.09998,-8.58699 6.112,-6.41201 0.225,-8.84898 7.57498,-4.57501 2.475,-8.51202 8.51202,-2.475 4.57398,-7.57498 8.88701,-0.18709 6.41299,-6.11199 8.587,2.10001 7.762,-4.275 7.799,4.275 8.58702,-2.10001 6.413,6.11199 8.84898,0.18709 4.61201,7.57498 8.51201,2.475 2.475,8.51202 7.57499,4.57501 0.225,8.84898 6.11199,6.41201 -2.09997,8.58699 z"
       id="path4186"
       inkscape:connector-curvature="0" />
    <path
       style="fill:#f5a900;fill-opacity:1;fill-rule:evenodd;stroke:none"
       d="m 297.28978,491.33271 c 0,-26.21101 21.22402,-47.47198 47.398,-47.47198 26.21101,0 47.39701,21.26097 47.39701,47.47198 0,26.24899 -21.186,47.47301 -47.39701,47.47301 -26.17398,0 -47.398,-21.22402 -47.398,-47.47301 z"
       id="path4188"
       inkscape:connector-curvature="0" />
    <path
       style="fill:#f8f100;fill-opacity:1;fill-rule:evenodd;stroke:none"
       d="m 313.03878,491.33271 c 0,-17.43601 14.175,-31.57299 31.649,-31.57299 17.49302,0 31.648,14.13698 31.648,31.57299 0,17.456 -14.15498,31.57398 -31.648,31.57398 -17.474,0 -31.649,-14.11798 -31.649,-31.57398 z"
       id="path4190"
       inkscape:connector-curvature="0" />
    <path
       style="fill:#884200;fill-opacity:1;fill-rule:evenodd;stroke:none"
       d="m 377.4988,410.22472 c -1.61302,-0.63702 -2.40002,-2.475 -1.72502,-4.05 0.63702,-1.61199 2.43702,-2.399 4.04901,-1.724 1.61302,0.63698 2.36299,2.43698 1.72499,4.04901 -0.63698,1.61298 -2.475,2.363 -4.04898,1.72499 z"
       id="path4192"
       inkscape:connector-curvature="0" />
    <path
       style="fill:none;stroke:#884200;stroke-width:3.74980497px;stroke-linecap:round;stroke-linejoin:round;stroke-miterlimit:4;stroke-dasharray:none;stroke-opacity:1"
       d="m 377.4988,410.22472 c -1.61302,-0.63702 -2.40002,-2.475 -1.72502,-4.05 0.63702,-1.61199 2.43702,-2.399 4.04901,-1.724 1.61302,0.63698 2.36299,2.43698 1.72499,4.04901 -0.63698,1.61298 -2.475,2.363 -4.04898,1.72499"
       id="path4194"
       inkscape:connector-curvature="0" />
    <path
       style="fill:#884200;fill-opacity:1;fill-rule:evenodd;stroke:none"
       d="m 407.64678,430.58672 c -1.19997,-1.27499 -1.16199,-3.22501 0.0751,-4.42499 1.23701,-1.20001 3.22501,-1.16302 4.42499,0.0751 1.20001,1.237 1.16199,3.22501 -0.0751,4.42502 -1.23803,1.19998 -3.22501,1.162 -4.42502,-0.0751 z"
       id="path4196"
       inkscape:connector-curvature="0" />
    <path
       style="fill:none;stroke:#884200;stroke-width:3.74980497px;stroke-linecap:round;stroke-linejoin:round;stroke-miterlimit:4;stroke-dasharray:none;stroke-opacity:1"
       d="m 407.64678,430.58672 c -1.19997,-1.27499 -1.16199,-3.22501 0.0751,-4.42499 1.23701,-1.20001 3.22501,-1.16302 4.42499,0.0751 1.20001,1.237 1.16199,3.22501 -0.0751,4.42502 -1.23803,1.19998 -3.22501,1.162 -4.42502,-0.0751"
       id="path4198"
       inkscape:connector-curvature="0" />
    <path
       style="fill:#884200;fill-opacity:1;fill-rule:evenodd;stroke:none"
       d="m 426.92078,461.4097 c -0.59999,-1.61199 0.26185,-3.41199 1.87501,-3.97499 1.61199,-0.59999 3.41199,0.225 4.01202,1.83802 0.59999,1.64998 -0.26185,3.44898 -1.87501,4.01198 -1.612,0.59999 -3.412,-0.225 -4.01202,-1.87501 z"
       id="path4200"
       inkscape:connector-curvature="0" />
    <path
       style="fill:none;stroke:#884200;stroke-width:3.74980497px;stroke-linecap:round;stroke-linejoin:round;stroke-miterlimit:4;stroke-dasharray:none;stroke-opacity:1"
       d="m 426.92078,461.4097 c -0.59999,-1.61199 0.26185,-3.41199 1.87501,-3.97499 1.61199,-0.59999 3.41199,0.225 4.01202,1.83802 0.59999,1.64998 -0.26185,3.44898 -1.87501,4.01198 -1.612,0.59999 -3.412,-0.225 -4.01202,-1.87501"
       id="path4202"
       inkscape:connector-curvature="0" />
    <path
       style="fill:#884200;fill-opacity:1;fill-rule:evenodd;stroke:none"
       d="m 431.98278,497.44569 c 0.11304,-1.72498 1.61302,-2.99997 3.33801,-2.88797 1.724,0.11303 2.99899,1.61299 2.88702,3.33797 -0.11303,1.72503 -1.61302,2.99902 -3.33702,2.88702 -1.68799,-0.11197 -3.00001,-1.61199 -2.88801,-3.33702 z"
       id="path4204"
       inkscape:connector-curvature="0" />
    <path
       style="fill:none;stroke:#884200;stroke-width:3.74980497px;stroke-linecap:round;stroke-linejoin:round;stroke-miterlimit:4;stroke-dasharray:none;stroke-opacity:1"
       d="m 431.98278,497.44569 c 0.11304,-1.72498 1.61302,-2.99997 3.33801,-2.88797 1.724,0.11303 2.99899,1.61299 2.88702,3.33797 -0.11303,1.72503 -1.61302,2.99902 -3.33702,2.88702 -1.68799,-0.11197 -3.00001,-1.61199 -2.88801,-3.33702"
       id="path4206"
       inkscape:connector-curvature="0" />
    <path
       style="fill:#884200;fill-opacity:1;fill-rule:evenodd;stroke:none"
       d="m 421.97078,532.43071 c 0.788,-1.53701 2.7,-2.10001 4.20002,-1.31201 1.53698,0.82502 2.09998,2.7 1.31198,4.23701 -0.82399,1.53801 -2.699,2.10001 -4.23698,1.31301 -1.50002,-0.82502 -2.10001,-2.7 -1.27502,-4.23801 z"
       id="path4208"
       inkscape:connector-curvature="0" />
    <path
       style="fill:none;stroke:#884200;stroke-width:3.74980497px;stroke-linecap:round;stroke-linejoin:round;stroke-miterlimit:4;stroke-dasharray:none;stroke-opacity:1"
       d="m 421.97078,532.43071 c 0.788,-1.53701 2.7,-2.10001 4.20002,-1.31201 1.53698,0.82502 2.09998,2.7 1.31198,4.23701 -0.82399,1.53801 -2.699,2.10001 -4.23698,1.31301 -1.50002,-0.82502 -2.10001,-2.7 -1.27502,-4.23801"
       id="path4210"
       inkscape:connector-curvature="0" />
    <path
       style="fill:#884200;fill-opacity:1;fill-rule:evenodd;stroke:none"
       d="m 398.57181,560.2917 c 1.35,-1.04999 3.33797,-0.82499 4.38799,0.52501 1.04999,1.38798 0.82499,3.33801 -0.52501,4.38799 -1.38798,1.08702 -3.33801,0.82499 -4.38799,-0.52501 -1.08702,-1.35 -0.824,-3.29998 0.52501,-4.38799 z"
       id="path4212"
       inkscape:connector-curvature="0" />
    <path
       style="fill:none;stroke:#884200;stroke-width:3.74980497px;stroke-linecap:round;stroke-linejoin:round;stroke-miterlimit:4;stroke-dasharray:none;stroke-opacity:1"
       d="m 398.57181,560.2917 c 1.35,-1.04999 3.33797,-0.82499 4.38799,0.52501 1.04999,1.38798 0.82499,3.33801 -0.52501,4.38799 -1.38798,1.08702 -3.33801,0.82499 -4.38799,-0.52501 -1.08702,-1.35 -0.824,-3.29998 0.52501,-4.38799"
       id="path4214"
       inkscape:connector-curvature="0" />
    <path
       style="fill:#884200;fill-opacity:1;fill-rule:evenodd;stroke:none"
       d="m 365.85479,576.22871 c 1.68799,-0.41201 3.375,0.59999 3.80601,2.28699 0.413,1.66901 -0.599,3.375 -2.287,3.78801 -1.669,0.41198 -3.375,-0.60002 -3.78701,-2.26899 -0.41301,-1.687 0.59999,-3.375 2.268,-3.80601 z"
       id="path4216"
       inkscape:connector-curvature="0" />
    <path
       style="fill:none;stroke:#884200;stroke-width:3.74980497px;stroke-linecap:round;stroke-linejoin:round;stroke-miterlimit:4;stroke-dasharray:none;stroke-opacity:1"
       d="m 365.85479,576.22871 c 1.68799,-0.41201 3.375,0.59999 3.80601,2.28699 0.413,1.66901 -0.599,3.375 -2.287,3.78801 -1.669,0.41198 -3.375,-0.60002 -3.78701,-2.26899 -0.41301,-1.687 0.59999,-3.375 2.268,-3.80601"
       id="path4218"
       inkscape:connector-curvature="0" />
    <path
       style="fill:#884200;fill-opacity:1;fill-rule:evenodd;stroke:none"
       d="m 329.50078,577.5037 c 1.70603,0.30012 2.83103,1.931 2.53102,3.61899 -0.30012,1.706 -1.91201,2.831 -3.618,2.54902 -1.688,-0.30012 -2.831,-1.93099 -2.53202,-3.618 0.30012,-1.70599 1.913,-2.85002 3.619,-2.55001 z"
       id="path4220"
       inkscape:connector-curvature="0" />
    <path
       style="fill:none;stroke:#884200;stroke-width:3.74980497px;stroke-linecap:round;stroke-linejoin:round;stroke-miterlimit:4;stroke-dasharray:none;stroke-opacity:1"
       d="m 329.50078,577.5037 c 1.70603,0.30012 2.83103,1.931 2.53102,3.61899 -0.30012,1.706 -1.91201,2.831 -3.618,2.54902 -1.688,-0.30012 -2.831,-1.93099 -2.53202,-3.618 0.30012,-1.70599 1.913,-2.85002 3.619,-2.55001"
       id="path4222"
       inkscape:connector-curvature="0" />
    <path
       style="fill:#884200;fill-opacity:1;fill-rule:evenodd;stroke:none"
       d="m 295.77179,563.8727 c 1.42402,0.97502 1.79901,2.907 0.84299,4.33099 -0.97498,1.444 -2.90598,1.81903 -4.33099,0.84401 -1.44301,-0.95598 -1.818,-2.906 -0.84299,-4.33098 0.95599,-1.42501 2.90598,-1.8 4.33099,-0.84402 z"
       id="path4224"
       inkscape:connector-curvature="0" />
    <path
       style="fill:none;stroke:#884200;stroke-width:3.74980497px;stroke-linecap:round;stroke-linejoin:round;stroke-miterlimit:4;stroke-dasharray:none;stroke-opacity:1"
       d="m 295.77179,563.8727 c 1.42402,0.97502 1.79901,2.907 0.84299,4.33099 -0.97498,1.444 -2.90598,1.81903 -4.33099,0.84401 -1.44301,-0.95598 -1.818,-2.906 -0.84299,-4.33098 0.95599,-1.42501 2.90598,-1.8 4.33099,-0.84402"
       id="path4226"
       inkscape:connector-curvature="0" />
    <path
       style="fill:#884200;fill-opacity:1;fill-rule:evenodd;stroke:none"
       d="m 270.4978,537.71871 c 0.919,1.462 0.469,3.393 -0.994,4.293 -1.462,0.91899 -3.393,0.46899 -4.31199,-0.99401 -0.9,-1.462 -0.46903,-3.393 0.99397,-4.31199 1.462,-0.9 3.393,-0.46899 4.31202,1.013 z"
       id="path4228"
       inkscape:connector-curvature="0" />
    <path
       style="fill:none;stroke:#884200;stroke-width:3.74980497px;stroke-linecap:round;stroke-linejoin:round;stroke-miterlimit:4;stroke-dasharray:none;stroke-opacity:1"
       d="m 270.4978,537.71871 c 0.919,1.462 0.469,3.393 -0.994,4.293 -1.462,0.91899 -3.393,0.46899 -4.31199,-0.99401 -0.9,-1.462 -0.46903,-3.393 0.99397,-4.31199 1.462,-0.9 3.393,-0.46899 4.31202,1.013"
       id="path4230"
       inkscape:connector-curvature="0" />
    <path
       style="fill:#884200;fill-opacity:1;fill-rule:evenodd;stroke:none"
       d="m 258.04878,503.5197 c 0.24307,1.70703 -0.93798,3.281 -2.663,3.52503 -1.706,0.24413 -3.281,-0.93703 -3.52499,-2.66202 -0.24307,-1.706 0.95701,-3.281 2.66301,-3.52499 1.70599,-0.225 3.29998,0.95599 3.52498,2.66198 z"
       id="path4232"
       inkscape:connector-curvature="0" />
    <path
       style="fill:none;stroke:#884200;stroke-width:3.74980497px;stroke-linecap:round;stroke-linejoin:round;stroke-miterlimit:4;stroke-dasharray:none;stroke-opacity:1"
       d="m 258.04878,503.5197 c 0.24307,1.70703 -0.93798,3.281 -2.663,3.52503 -1.706,0.24413 -3.281,-0.93703 -3.52499,-2.66202 -0.24307,-1.706 0.95701,-3.281 2.66301,-3.52499 1.70599,-0.225 3.29998,0.95599 3.52498,2.66198"
       id="path4234"
       inkscape:connector-curvature="0" />
    <path
       style="fill:#884200;fill-opacity:1;fill-rule:evenodd;stroke:none"
       d="m 260.5978,467.22171 c -0.48702,1.66901 -2.21201,2.62499 -3.86202,2.138 -1.66897,-0.46899 -2.62499,-2.19398 -2.156,-3.86299 0.46903,-1.65001 2.21202,-2.60599 3.86203,-2.137 1.66897,0.48699 2.62499,2.21198 2.15599,3.86199 z"
       id="path4236"
       inkscape:connector-curvature="0" />
    <path
       style="fill:none;stroke:#884200;stroke-width:3.74980497px;stroke-linecap:round;stroke-linejoin:round;stroke-miterlimit:4;stroke-dasharray:none;stroke-opacity:1"
       d="m 260.5978,467.22171 c -0.48702,1.66901 -2.21201,2.62499 -3.86202,2.138 -1.66897,-0.46899 -2.62499,-2.19398 -2.156,-3.86299 0.46903,-1.65001 2.21202,-2.60599 3.86203,-2.137 1.66897,0.48699 2.62499,2.21198 2.15599,3.86199"
       id="path4238"
       inkscape:connector-curvature="0" />
    <path
       style="fill:#884200;fill-opacity:1;fill-rule:evenodd;stroke:none"
       d="m 277.65978,435.10472 c -1.106,1.31301 -3.07498,1.481 -4.387,0.37499 -1.33097,-1.10601 -1.49999,-3.07499 -0.39398,-4.38701 1.10601,-1.33097 3.07499,-1.49998 4.406,-0.39398 1.31198,1.10601 1.49998,3.07499 0.37498,4.406 z"
       id="path4240"
       inkscape:connector-curvature="0" />
    <path
       style="fill:none;stroke:#884200;stroke-width:3.74980497px;stroke-linecap:round;stroke-linejoin:round;stroke-miterlimit:4;stroke-dasharray:none;stroke-opacity:1"
       d="m 277.65978,435.10472 c -1.106,1.31301 -3.07498,1.481 -4.387,0.37499 -1.33097,-1.10601 -1.49999,-3.07499 -0.39398,-4.38701 1.10601,-1.33097 3.07499,-1.49998 4.406,-0.39398 1.31198,1.10601 1.49998,3.07499 0.37498,4.406"
       id="path4242"
       inkscape:connector-curvature="0" />
    <path
       style="fill:#884200;fill-opacity:1;fill-rule:evenodd;stroke:none"
       d="m 306.3458,412.69972 c -1.55601,0.75001 -3.43102,0.11303 -4.181,-1.44401 -0.75001,-1.53698 -0.11303,-3.41199 1.444,-4.162 1.53698,-0.769 3.412,-0.11197 4.16201,1.42501 0.76897,1.55601 0.11197,3.43099 -1.42501,4.181 z"
       id="path4244"
       inkscape:connector-curvature="0" />
    <path
       style="fill:none;stroke:#884200;stroke-width:3.74980497px;stroke-linecap:round;stroke-linejoin:round;stroke-miterlimit:4;stroke-dasharray:none;stroke-opacity:1"
       d="m 306.3458,412.69972 c -1.55601,0.75001 -3.43102,0.11303 -4.181,-1.44401 -0.75001,-1.53698 -0.11303,-3.41199 1.444,-4.162 1.53698,-0.769 3.412,-0.11197 4.16201,1.42501 0.76897,1.55601 0.11197,3.43099 -1.42501,4.181"
       id="path4246"
       inkscape:connector-curvature="0" />
    <path
       style="fill:#884200;fill-opacity:1;fill-rule:evenodd;stroke:none"
       d="m 341.64978,403.90672 c -1.72399,0.056 -3.18699,-1.29402 -3.24297,-3.01901 -0.056,-1.72498 1.29398,-3.168 3.01797,-3.22501 1.72503,-0.0751 3.169,1.27503 3.24401,3.00001 0.056,1.72499 -1.29398,3.169 -3.01901,3.24401 z"
       id="path4248"
       inkscape:connector-curvature="0" />
    <path
       style="fill:none;stroke:#884200;stroke-width:3.74980497px;stroke-linecap:round;stroke-linejoin:round;stroke-miterlimit:4;stroke-dasharray:none;stroke-opacity:1"
       d="m 341.64978,403.90672 c -1.72399,0.056 -3.18699,-1.29402 -3.24297,-3.01901 -0.056,-1.72498 1.29398,-3.168 3.01797,-3.22501 1.72503,-0.0751 3.169,1.27503 3.24401,3.00001 0.056,1.72499 -1.29398,3.169 -3.01901,3.24401"
       id="path4250"
       inkscape:connector-curvature="0" />
    <path
       style="fill:none;stroke:#884200;stroke-width:3.74980497px;stroke-linecap:round;stroke-linejoin:round;stroke-miterlimit:4;stroke-dasharray:none;stroke-opacity:1"
       d="m 344.8378,491.4827 c -17.69899,-41.697 58.72199,-25.64798 33.935,-84.03299 17.69999,41.69802 -58.721,25.649 -33.935,84.03299 0.78701,-45.297 64.08401,0.48802 65.17099,-62.959 -0.78701,45.29802 -64.08401,-0.48699 -65.17099,62.959 19.12398,-41.05998 58.347,26.51201 85.158,-31.00999 -19.16202,41.097 -58.347,-26.474 -85.158,31.00999 34.19798,-29.73497 42.52298,47.96 90.37,6.33802 -34.16099,29.736 -42.52302,-47.96001 -90.37,-6.33802 43.30999,-13.23599 19.34898,61.12201 79.983,42.561 -43.31002,13.23701 -19.349,-61.12198 -79.983,-42.561 44.96,5.51299 -7.2,63.71 55.79699,71.43402 -44.99801,-5.512 7.16202,-63.70901 -55.79699,-71.43402 38.80999,23.36201 -32.47402,55.273 21.89899,87.933 -38.81101,-23.323 32.47299,-55.23398 -21.89899,-87.933 25.98598,37.124 -52.123,37.27399 -15.749,89.24601 -25.98701,-37.12301 52.12201,-37.273 15.749,-89.24601 8.62399,44.473 -62.80901,12.86203 -50.69802,75.14702 -8.62399,-44.473 62.77202,-12.86203 50.69802,-75.14702 -10.20001,44.17302 -62.58401,-13.79898 -76.87102,48.03501 10.19902,-44.17199 62.58402,13.79998 76.87102,-48.03501 -27.29902,36.18602 -51.56,-38.05997 -89.77099,12.6 27.29898,-36.18599 51.59799,38.06 89.77099,-12.6 -39.636,21.97399 -31.64899,-55.72197 -87.10802,-24.97298 39.59802,-21.97399 31.61101,55.72197 87.10802,24.97298 -45.148,3.93799 -6.22502,-63.78399 -69.44701,-58.27099 45.14801,-3.938 6.22499,63.82101 69.44701,58.27099 -42.86101,-14.73598 20.24898,-60.82097 -39.748,-81.445 42.85998,14.73601 -20.24901,60.78401 39.748,81.445 -33.14902,-30.89799 43.23498,-47.322 -3.18802,-90.59499 33.14902,30.93601 -43.235,47.32299 3.18802,90.59499"
       id="path4252"
       inkscape:connector-curvature="0" />
  </g>
</svg>
